<svg width="1089" height="532" viewBox="0 0 1089 532" fill="none" xmlns="http://www.w3.org/2000/svg">
<g filter="url(#filter0_d_106_148)">
<path d="M75 35.3094C76.2376 34.5949 77.7624 34.5949 79 35.3094L117.301 57.4227C118.539 58.1372 119.301 59.4577 119.301 60.8868V105.113C119.301 106.542 118.539 107.863 117.301 108.577L79 130.691C77.7624 131.405 76.2376 131.405 75 130.691L36.6987 108.577C35.4611 107.863 34.6987 106.542 34.6987 105.113V60.8867C34.6987 59.4577 35.4611 58.1372 36.6987 57.4226L75 35.3094Z" stroke="#777777" stroke-width="2"/>
<path d="M118 107.309C119.238 106.595 120.762 106.595 122 107.309L160.301 129.423C161.539 130.137 162.301 131.458 162.301 132.887V177.113C162.301 178.542 161.539 179.863 160.301 180.577L122 202.691C120.762 203.405 119.238 203.405 118 202.691L79.6987 180.577C78.4611 179.863 77.6987 178.542 77.6987 177.113V132.887C77.6987 131.458 78.4611 130.137 79.6987 129.423L118 107.309Z" stroke="#777777" stroke-width="2"/>
<path d="M160 181.309C161.238 180.595 162.762 180.595 164 181.309L202.301 203.423C203.539 204.137 204.301 205.458 204.301 206.887V251.113C204.301 252.542 203.539 253.863 202.301 254.577L164 276.691C162.762 277.405 161.238 277.405 160 276.691L121.699 254.577C120.461 253.863 119.699 252.542 119.699 251.113V206.887C119.699 205.458 120.461 204.137 121.699 203.423L160 181.309Z" stroke="#777777" stroke-width="2"/>
<path d="M202 107.309C203.238 106.595 204.762 106.595 206 107.309L244.301 129.423C245.539 130.137 246.301 131.458 246.301 132.887V177.113C246.301 178.542 245.539 179.863 244.301 180.577L206 202.691C204.762 203.405 203.238 203.405 202 202.691L163.699 180.577C162.461 179.863 161.699 178.542 161.699 177.113V132.887C161.699 131.458 162.461 130.137 163.699 129.423L202 107.309Z" stroke="#777777" stroke-width="2"/>
<path d="M245 180.309C246.238 179.595 247.762 179.595 249 180.309L287.301 202.423C288.539 203.137 289.301 204.458 289.301 205.887V250.113C289.301 251.542 288.539 252.863 287.301 253.577L249 275.691C247.762 276.405 246.238 276.405 245 275.691L206.699 253.577C205.461 252.863 204.699 251.542 204.699 250.113V205.887C204.699 204.458 205.461 203.137 206.699 202.423L245 180.309Z" stroke="#777777" stroke-width="2"/>
<path d="M288 253.309C289.238 252.595 290.762 252.595 292 253.309L330.301 275.423C331.539 276.137 332.301 277.458 332.301 278.887V323.113C332.301 324.542 331.539 325.863 330.301 326.577L292 348.691C290.762 349.405 289.238 349.405 288 348.691L249.699 326.577C248.461 325.863 247.699 324.542 247.699 323.113V278.887C247.699 277.458 248.461 276.137 249.699 275.423L288 253.309Z" stroke="#777777" stroke-width="2"/>
<path d="M202 107.309C203.238 106.595 204.762 106.595 206 107.309L244.301 129.423C245.539 130.137 246.301 131.458 246.301 132.887V177.113C246.301 178.542 245.539 179.863 244.301 180.577L206 202.691C204.762 203.405 203.238 203.405 202 202.691L163.699 180.577C162.461 179.863 161.699 178.542 161.699 177.113V132.887C161.699 131.458 162.461 130.137 163.699 129.423L202 107.309Z" stroke="#777777" stroke-width="2"/>
<path d="M373 254.309C374.238 253.595 375.762 253.595 377 254.309L415.301 276.423C416.539 277.137 417.301 278.458 417.301 279.887V324.113C417.301 325.542 416.539 326.863 415.301 327.577L377 349.691C375.762 350.405 374.238 350.405 373 349.691L334.699 327.577C333.461 326.863 332.699 325.542 332.699 324.113V279.887C332.699 278.458 333.461 277.137 334.699 276.423L373 254.309Z" stroke="#777777" stroke-width="2"/>
<path d="M416 327.309C417.238 326.595 418.762 326.595 420 327.309L458.301 349.423C459.539 350.137 460.301 351.458 460.301 352.887V397.113C460.301 398.542 459.539 399.863 458.301 400.577L420 422.691C418.762 423.405 417.238 423.405 416 422.691L377.699 400.577C376.461 399.863 375.699 398.542 375.699 397.113V352.887C375.699 351.458 376.461 350.137 377.699 349.423L416 327.309Z" stroke="#777777" stroke-width="2"/>
<path d="M330 181.309C331.238 180.595 332.762 180.595 334 181.309L372.301 203.423C373.539 204.137 374.301 205.458 374.301 206.887V251.113C374.301 252.542 373.539 253.863 372.301 254.577L334 276.691C332.762 277.405 331.238 277.405 330 276.691L291.699 254.577C290.461 253.863 289.699 252.542 289.699 251.113V206.887C289.699 205.458 290.461 204.137 291.699 203.423L330 181.309Z" stroke="#777777" stroke-width="2"/>
<path d="M501 327.309C502.238 326.595 503.762 326.595 505 327.309L543.301 349.423C544.539 350.137 545.301 351.458 545.301 352.887V397.113C545.301 398.542 544.539 399.863 543.301 400.577L505 422.691C503.762 423.405 502.238 423.405 501 422.691L462.699 400.577C461.461 399.863 460.699 398.542 460.699 397.113V352.887C460.699 351.458 461.461 350.137 462.699 349.423L501 327.309Z" stroke="#777777" stroke-width="2"/>
<path d="M544 401.309C545.238 400.595 546.762 400.595 548 401.309L586.301 423.423C587.539 424.137 588.301 425.458 588.301 426.887V471.113C588.301 472.542 587.539 473.863 586.301 474.577L548 496.691C546.762 497.405 545.238 497.405 544 496.691L505.699 474.577C504.461 473.863 503.699 472.542 503.699 471.113V426.887C503.699 425.458 504.461 424.137 505.699 423.423L544 401.309Z" stroke="#777777" stroke-width="2"/>
<path d="M586 377.309C587.238 376.595 588.762 376.595 590 377.309L628.301 399.423C629.539 400.137 630.301 401.458 630.301 402.887V447.113C630.301 448.542 629.539 449.863 628.301 450.577L590 472.691C588.762 473.405 587.238 473.405 586 472.691L547.699 450.577C546.461 449.863 545.699 448.542 545.699 447.113V402.887C545.699 401.458 546.461 400.137 547.699 399.423L586 377.309Z" stroke="#777777" stroke-width="2"/>
<path d="M501 377.309C502.238 376.595 503.762 376.595 505 377.309L543.301 399.423C544.539 400.137 545.301 401.458 545.301 402.887V447.113C545.301 448.542 544.539 449.863 543.301 450.577L505 472.691C503.762 473.405 502.238 473.405 501 472.691L462.699 450.577C461.461 449.863 460.699 448.542 460.699 447.113V402.887C460.699 401.458 461.461 400.137 462.699 399.423L501 377.309Z" stroke="#777777" stroke-width="2"/>
<path d="M713 204.309C714.238 203.595 715.762 203.595 717 204.309L755.301 226.423C756.539 227.137 757.301 228.458 757.301 229.887V274.113C757.301 275.542 756.539 276.863 755.301 277.577L717 299.691C715.762 300.405 714.238 300.405 713 299.691L674.699 277.577C673.461 276.863 672.699 275.542 672.699 274.113V229.887C672.699 228.458 673.461 227.137 674.699 226.423L713 204.309Z" stroke="#777777" stroke-width="2"/>
<path d="M372 203.309C373.238 202.595 374.762 202.595 376 203.309L414.301 225.423C415.539 226.137 416.301 227.458 416.301 228.887V273.113C416.301 274.542 415.539 275.863 414.301 276.577L376 298.691C374.762 299.405 373.238 299.405 372 298.691L333.699 276.577C332.461 275.863 331.699 274.542 331.699 273.113V228.887C331.699 227.458 332.461 226.137 333.699 225.423L372 203.309Z" stroke="#777777" stroke-width="2"/>
<path d="M202 205.309C203.238 204.595 204.762 204.595 206 205.309L244.301 227.423C245.539 228.137 246.301 229.458 246.301 230.887V275.113C246.301 276.542 245.539 277.863 244.301 278.577L206 300.691C204.762 301.405 203.238 301.405 202 300.691L163.699 278.577C162.461 277.863 161.699 276.542 161.699 275.113V230.887C161.699 229.458 162.461 228.137 163.699 227.423L202 205.309Z" stroke="#777777" stroke-width="2"/>
<path d="M160 86.3094C161.238 85.5949 162.762 85.5949 164 86.3094L202.301 108.423C203.539 109.137 204.301 110.458 204.301 111.887V156.113C204.301 157.542 203.539 158.863 202.301 159.577L164 181.691C162.762 182.405 161.238 182.405 160 181.691L121.699 159.577C120.461 158.863 119.699 157.542 119.699 156.113V111.887C119.699 110.458 120.461 109.137 121.699 108.423L160 86.3094Z" stroke="#777777" stroke-width="2"/>
<path d="M925 83.3094C926.238 82.5949 927.762 82.5949 929 83.3094L967.301 105.423C968.539 106.137 969.301 107.458 969.301 108.887V153.113C969.301 154.542 968.539 155.863 967.301 156.577L929 178.691C927.762 179.405 926.238 179.405 925 178.691L886.699 156.577C885.461 155.863 884.699 154.542 884.699 153.113V108.887C884.699 107.458 885.461 106.137 886.699 105.423L925 83.3094Z" stroke="#777777" stroke-width="2"/>
<path d="M883 205.309C884.238 204.595 885.762 204.595 887 205.309L925.301 227.423C926.539 228.137 927.301 229.458 927.301 230.887V275.113C927.301 276.542 926.539 277.863 925.301 278.577L887 300.691C885.762 301.405 884.238 301.405 883 300.691L844.699 278.577C843.461 277.863 842.699 276.542 842.699 275.113V230.887C842.699 229.458 843.461 228.137 844.699 227.423L883 205.309Z" stroke="#777777" stroke-width="2"/>
<path d="M628 303.309C629.238 302.595 630.762 302.595 632 303.309L670.301 325.423C671.539 326.137 672.301 327.458 672.301 328.887V373.113C672.301 374.542 671.539 375.863 670.301 376.577L632 398.691C630.762 399.405 629.238 399.405 628 398.691L589.699 376.577C588.461 375.863 587.699 374.542 587.699 373.113V328.887C587.699 327.458 588.461 326.137 589.699 325.423L628 303.309Z" stroke="#777777" stroke-width="2"/>
<path d="M459 304.309C460.238 303.595 461.762 303.595 463 304.309L501.301 326.423C502.539 327.137 503.301 328.458 503.301 329.887V374.113C503.301 375.542 502.539 376.863 501.301 377.577L463 399.691C461.762 400.405 460.238 400.405 459 399.691L420.699 377.577C419.461 376.863 418.699 375.542 418.699 374.113V329.887C418.699 328.458 419.461 327.137 420.699 326.423L459 304.309Z" stroke="#777777" stroke-width="2"/>
<path d="M586 327.309C587.238 326.595 588.762 326.595 590 327.309L628.301 349.423C629.539 350.137 630.301 351.458 630.301 352.887V397.113C630.301 398.542 629.539 399.863 628.301 400.577L590 422.691C588.762 423.405 587.238 423.405 586 422.691L547.699 400.577C546.461 399.863 545.699 398.542 545.699 397.113V352.887C545.699 351.458 546.461 350.137 547.699 349.423L586 327.309Z" stroke="#777777" stroke-width="2"/>
<path d="M629 254.309C630.238 253.595 631.762 253.595 633 254.309L671.301 276.423C672.539 277.137 673.301 278.458 673.301 279.887V324.113C673.301 325.542 672.539 326.863 671.301 327.577L633 349.691C631.762 350.405 630.238 350.405 629 349.691L590.699 327.577C589.461 326.863 588.699 325.542 588.699 324.113V279.887C588.699 278.458 589.461 277.137 590.699 276.423L629 254.309Z" stroke="#777777" stroke-width="2"/>
<path d="M671 327.309C672.238 326.595 673.762 326.595 675 327.309L713.301 349.423C714.539 350.137 715.301 351.458 715.301 352.887V397.113C715.301 398.542 714.539 399.863 713.301 400.577L675 422.691C673.762 423.405 672.238 423.405 671 422.691L632.699 400.577C631.461 399.863 630.699 398.542 630.699 397.113V352.887C630.699 351.458 631.461 350.137 632.699 349.423L671 327.309Z" stroke="#777777" stroke-width="2"/>
<path d="M713 254.309C714.238 253.595 715.762 253.595 717 254.309L755.301 276.423C756.539 277.137 757.301 278.458 757.301 279.887V324.113C757.301 325.542 756.539 326.863 755.301 327.577L717 349.691C715.762 350.405 714.238 350.405 713 349.691L674.699 327.577C673.461 326.863 672.699 325.542 672.699 324.113V279.887C672.699 278.458 673.461 277.137 674.699 276.423L713 254.309Z" stroke="#777777" stroke-width="2"/>
<path d="M756 181.309C757.238 180.595 758.762 180.595 760 181.309L798.301 203.423C799.539 204.137 800.301 205.458 800.301 206.887V251.113C800.301 252.542 799.539 253.863 798.301 254.577L760 276.691C758.762 277.405 757.238 277.405 756 276.691L717.699 254.577C716.461 253.863 715.699 252.542 715.699 251.113V206.887C715.699 205.458 716.461 204.137 717.699 203.423L756 181.309Z" stroke="#777777" stroke-width="2"/>
<path d="M798 254.309C799.238 253.595 800.762 253.595 802 254.309L840.301 276.423C841.539 277.137 842.301 278.458 842.301 279.887V324.113C842.301 325.542 841.539 326.863 840.301 327.577L802 349.691C800.762 350.405 799.238 350.405 798 349.691L759.699 327.577C758.461 326.863 757.699 325.542 757.699 324.113V279.887C757.699 278.458 758.461 277.137 759.699 276.423L798 254.309Z" stroke="#777777" stroke-width="2"/>
<path d="M840 181.309C841.238 180.595 842.762 180.595 844 181.309L882.301 203.423C883.539 204.137 884.301 205.458 884.301 206.887V251.113C884.301 252.542 883.539 253.863 882.301 254.577L844 276.691C842.762 277.405 841.238 277.405 840 276.691L801.699 254.577C800.461 253.863 799.699 252.542 799.699 251.113V206.887C799.699 205.458 800.461 204.137 801.699 203.423L840 181.309Z" stroke="#777777" stroke-width="2"/>
<path d="M883 108.309C884.238 107.595 885.762 107.595 887 108.309L925.301 130.423C926.539 131.137 927.301 132.458 927.301 133.887V178.113C927.301 179.542 926.539 180.863 925.301 181.577L887 203.691C885.762 204.405 884.238 204.405 883 203.691L844.699 181.577C843.461 180.863 842.699 179.542 842.699 178.113V133.887C842.699 132.458 843.461 131.137 844.699 130.423L883 108.309Z" stroke="#777777" stroke-width="2"/>
<path d="M925 181.309C926.238 180.595 927.762 180.595 929 181.309L967.301 203.423C968.539 204.137 969.301 205.458 969.301 206.887V251.113C969.301 252.542 968.539 253.863 967.301 254.577L929 276.691C927.762 277.405 926.238 277.405 925 276.691L886.699 254.577C885.461 253.863 884.699 252.542 884.699 251.113V206.887C884.699 205.458 885.461 204.137 886.699 203.423L925 181.309Z" stroke="#777777" stroke-width="2"/>
<path d="M967 108.309C968.238 107.595 969.762 107.595 971 108.309L1009.3 130.423C1010.54 131.137 1011.3 132.458 1011.3 133.887V178.113C1011.3 179.542 1010.54 180.863 1009.3 181.577L971 203.691C969.762 204.405 968.238 204.405 967 203.691L928.699 181.577C927.461 180.863 926.699 179.542 926.699 178.113V133.887C926.699 132.458 927.461 131.137 928.699 130.423L967 108.309Z" stroke="#777777" stroke-width="2"/>
<path d="M1010 35.3094C1011.24 34.5949 1012.76 34.5949 1014 35.3094L1052.3 57.4227C1053.54 58.1372 1054.3 59.4577 1054.3 60.8868V105.113C1054.3 106.542 1053.54 107.863 1052.3 108.577L1014 130.691C1012.76 131.405 1011.24 131.405 1010 130.691L971.699 108.577C970.461 107.863 969.699 106.542 969.699 105.113V60.8867C969.699 59.4577 970.461 58.1372 971.699 57.4226L1010 35.3094Z" stroke="#777777" stroke-width="2"/>
<path d="M458 254.309C459.238 253.595 460.762 253.595 462 254.309L500.301 276.423C501.539 277.137 502.301 278.458 502.301 279.887V324.113C502.301 325.542 501.539 326.863 500.301 327.577L462 349.691C460.762 350.405 459.238 350.405 458 349.691L419.699 327.577C418.461 326.863 417.699 325.542 417.699 324.113V279.887C417.699 278.458 418.461 277.137 419.699 276.423L458 254.309Z" stroke="#777777" stroke-width="2"/>
<path d="M332.5 230.188C332.5 228.938 333.167 227.782 334.25 227.157L372.551 205.044C373.634 204.418 374.968 204.418 376.051 205.044L414.353 227.157C415.435 227.782 416.103 228.938 416.103 230.188L416.103 274.415C416.103 275.665 415.435 276.82 414.353 277.446L376.051 299.559C374.968 300.184 373.634 300.184 372.551 299.559L334.25 277.446C333.167 276.82 332.5 275.665 332.5 274.415L332.5 230.188Z" stroke="url(#paint0_linear_106_148)" stroke-width="3"/>
<path d="M120.5 111.188C120.5 109.938 121.167 108.782 122.25 108.157L160.551 86.0437C161.634 85.4185 162.968 85.4185 164.051 86.0437L202.353 108.157C203.435 108.782 204.103 109.938 204.103 111.188L204.103 155.415C204.103 156.665 203.435 157.82 202.353 158.446L164.051 180.559C162.968 181.184 161.634 181.184 160.551 180.559L122.25 158.446C121.167 157.82 120.5 156.665 120.5 155.415L120.5 111.188Z" stroke="url(#paint1_linear_106_148)" stroke-width="3"/>
<path d="M885.5 110.188C885.5 108.938 886.167 107.782 887.25 107.157L925.551 85.0437C926.634 84.4185 927.968 84.4185 929.051 85.0437L967.353 107.157C968.435 107.782 969.103 108.938 969.103 110.188L969.103 154.415C969.103 155.665 968.435 156.82 967.353 157.446L929.051 179.559C927.968 180.184 926.634 180.184 925.551 179.559L887.25 157.446C886.167 156.82 885.5 155.665 885.5 154.415L885.5 110.188Z" stroke="url(#paint2_linear_106_148)" stroke-width="3"/>
<path d="M588.5 329.188C588.5 327.938 589.167 326.782 590.25 326.157L628.551 304.044C629.634 303.418 630.968 303.418 632.051 304.044L670.353 326.157C671.435 326.782 672.103 327.938 672.103 329.188L672.103 373.415C672.103 374.665 671.435 375.82 670.353 376.446L632.051 398.559C630.968 399.184 629.634 399.184 628.551 398.559L590.25 376.446C589.167 375.82 588.5 374.665 588.5 373.415L588.5 329.188Z" stroke="url(#paint3_linear_106_148)" stroke-width="3"/>
<path d="M419.5 329.188C419.5 327.938 420.167 326.782 421.25 326.157L459.551 304.044C460.634 303.418 461.968 303.418 463.051 304.044L501.353 326.157C502.435 326.782 503.103 327.938 503.103 329.188L503.103 373.415C503.103 374.665 502.435 375.82 501.353 376.446L463.051 398.559C461.968 399.184 460.634 399.184 459.551 398.559L421.25 376.446C420.167 375.82 419.5 374.665 419.5 373.415L419.5 329.188Z" stroke="url(#paint4_linear_106_148)" stroke-width="3"/>
<path d="M673.5 231.188C673.5 229.938 674.167 228.782 675.25 228.157L713.551 206.044C714.634 205.418 715.968 205.418 717.051 206.044L755.353 228.157C756.435 228.782 757.103 229.938 757.103 231.188L757.103 275.415C757.103 276.665 756.435 277.82 755.353 278.446L717.051 300.559C715.968 301.184 714.634 301.184 713.551 300.559L675.25 278.446C674.167 277.82 673.5 276.665 673.5 275.415L673.5 231.188Z" stroke="url(#paint5_linear_106_148)" stroke-width="3"/>
</g>
<defs>
<filter id="filter0_d_106_148" x="0.69873" y="0.773499" width="1087.6" height="530.453" filterUnits="userSpaceOnUse" color-interpolation-filters="sRGB">
<feFlood flood-opacity="0" result="BackgroundImageFix"/>
<feColorMatrix in="SourceAlpha" type="matrix" values="0 0 0 0 0 0 0 0 0 0 0 0 0 0 0 0 0 0 127 0" result="hardAlpha"/>
<feOffset/>
<feGaussianBlur stdDeviation="16.5"/>
<feComposite in2="hardAlpha" operator="out"/>
<feColorMatrix type="matrix" values="0 0 0 0 0 0 0 0 0 0 0 0 0 0 0 0 0 0 0.8 0"/>
<feBlend mode="normal" in2="BackgroundImageFix" result="effect1_dropShadow_106_148"/>
<feBlend mode="normal" in="SourceGraphic" in2="effect1_dropShadow_106_148" result="shape"/>
</filter>
<linearGradient id="paint0_linear_106_148" x1="331" y1="227.301" x2="417.603" y2="277.301" gradientUnits="userSpaceOnUse">
<stop stop-color="#8B4513"/>
<stop offset="1" stop-color="#556B2F"/>
</linearGradient>
<linearGradient id="paint1_linear_106_148" x1="119" y1="108.301" x2="205.603" y2="158.301" gradientUnits="userSpaceOnUse">
<stop stop-color="#8B4513"/>
<stop offset="1" stop-color="#556B2F"/>
</linearGradient>
<linearGradient id="paint2_linear_106_148" x1="884" y1="107.301" x2="970.603" y2="157.301" gradientUnits="userSpaceOnUse">
<stop stop-color="#8B4513"/>
<stop offset="1" stop-color="#556B2F"/>
</linearGradient>
<linearGradient id="paint3_linear_106_148" x1="587" y1="326.301" x2="673.603" y2="376.301" gradientUnits="userSpaceOnUse">
<stop stop-color="#8B4513"/>
<stop offset="1" stop-color="#556B2F"/>
</linearGradient>
<linearGradient id="paint4_linear_106_148" x1="418" y1="326.301" x2="504.603" y2="376.301" gradientUnits="userSpaceOnUse">
<stop stop-color="#8B4513"/>
<stop offset="1" stop-color="#556B2F"/>
</linearGradient>
<linearGradient id="paint5_linear_106_148" x1="672" y1="228.301" x2="758.603" y2="278.301" gradientUnits="userSpaceOnUse">
<stop stop-color="#8B4513"/>
<stop offset="1" stop-color="#556B2F"/>
</linearGradient>
</defs>
</svg>
