<svg width="804" height="212" viewBox="0 0 804 212" fill="none" xmlns="http://www.w3.org/2000/svg">
<g filter="url(#filter0_d_2_39)">
<path d="M195.752 104.008C195.752 106.568 195.581 108.872 195.24 110.92H143.4C143.827 116.04 145.619 120.051 148.776 122.952C151.933 125.853 155.816 127.304 160.424 127.304C167.08 127.304 171.816 124.445 174.632 118.728H193.96C191.912 125.555 187.987 131.187 182.184 135.624C176.381 139.976 169.256 142.152 160.808 142.152C153.981 142.152 147.837 140.659 142.376 137.672C137 134.6 132.776 130.291 129.704 124.744C126.717 119.197 125.224 112.797 125.224 105.544C125.224 98.2053 126.717 91.7627 129.704 86.216C132.691 80.6693 136.872 76.4027 142.248 73.416C147.624 70.4293 153.811 68.936 160.808 68.936C167.549 68.936 173.565 70.3867 178.856 73.288C184.232 76.1893 188.371 80.328 191.272 85.704C194.259 90.9947 195.752 97.096 195.752 104.008ZM177.192 98.888C177.107 94.28 175.443 90.6107 172.2 87.88C168.957 85.064 164.989 83.656 160.296 83.656C155.859 83.656 152.104 85.0213 149.032 87.752C146.045 90.3973 144.211 94.1093 143.528 98.888H177.192ZM250.816 141L226.752 110.792V141H208.832V46.28H226.752V100.168L250.56 70.088H273.856L242.624 105.672L274.112 141H250.816ZM315.07 142.152C308.243 142.152 302.099 140.659 296.638 137.672C291.177 134.6 286.867 130.291 283.71 124.744C280.638 119.197 279.102 112.797 279.102 105.544C279.102 98.2907 280.681 91.8907 283.838 86.344C287.081 80.7973 291.475 76.5307 297.022 73.544C302.569 70.472 308.755 68.936 315.582 68.936C322.409 68.936 328.595 70.472 334.142 73.544C339.689 76.5307 344.041 80.7973 347.198 86.344C350.441 91.8907 352.062 98.2907 352.062 105.544C352.062 112.797 350.398 119.197 347.07 124.744C343.827 130.291 339.39 134.6 333.758 137.672C328.211 140.659 321.982 142.152 315.07 142.152ZM315.07 126.536C318.313 126.536 321.342 125.768 324.158 124.232C327.059 122.611 329.363 120.221 331.07 117.064C332.777 113.907 333.63 110.067 333.63 105.544C333.63 98.8027 331.838 93.64 328.254 90.056C324.755 86.3867 320.446 84.552 315.326 84.552C310.206 84.552 305.897 86.3867 302.398 90.056C298.985 93.64 297.278 98.8027 297.278 105.544C297.278 112.285 298.942 117.491 302.27 121.16C305.683 124.744 309.95 126.536 315.07 126.536ZM404.503 69.064C412.951 69.064 419.778 71.752 424.983 77.128C430.188 82.4187 432.791 89.8427 432.791 99.4V141H414.871V101.832C414.871 96.2 413.463 91.8907 410.647 88.904C407.831 85.832 403.991 84.296 399.127 84.296C394.178 84.296 390.252 85.832 387.351 88.904C384.535 91.8907 383.127 96.2 383.127 101.832V141H365.207V70.088H383.127V78.92C385.516 75.848 388.546 73.4587 392.215 71.752C395.97 69.96 400.066 69.064 404.503 69.064ZM481.32 142.152C474.493 142.152 468.349 140.659 462.888 137.672C457.427 134.6 453.117 130.291 449.96 124.744C446.888 119.197 445.352 112.797 445.352 105.544C445.352 98.2907 446.931 91.8907 450.088 86.344C453.331 80.7973 457.725 76.5307 463.272 73.544C468.819 70.472 475.005 68.936 481.832 68.936C488.659 68.936 494.845 70.472 500.392 73.544C505.939 76.5307 510.291 80.7973 513.448 86.344C516.691 91.8907 518.312 98.2907 518.312 105.544C518.312 112.797 516.648 119.197 513.32 124.744C510.077 130.291 505.64 134.6 500.008 137.672C494.461 140.659 488.232 142.152 481.32 142.152ZM481.32 126.536C484.563 126.536 487.592 125.768 490.408 124.232C493.309 122.611 495.613 120.221 497.32 117.064C499.027 113.907 499.88 110.067 499.88 105.544C499.88 98.8027 498.088 93.64 494.504 90.056C491.005 86.3867 486.696 84.552 481.576 84.552C476.456 84.552 472.147 86.3867 468.648 90.056C465.235 93.64 463.528 98.8027 463.528 105.544C463.528 112.285 465.192 117.491 468.52 121.16C471.933 124.744 476.2 126.536 481.32 126.536ZM619.521 69.064C628.225 69.064 635.222 71.752 640.513 77.128C645.889 82.4187 648.577 89.8427 648.577 99.4V141H630.657V101.832C630.657 96.2853 629.249 92.0613 626.433 89.16C623.617 86.1733 619.777 84.68 614.913 84.68C610.049 84.68 606.166 86.1733 603.265 89.16C600.449 92.0613 599.041 96.2853 599.041 101.832V141H581.121V101.832C581.121 96.2853 579.713 92.0613 576.897 89.16C574.081 86.1733 570.241 84.68 565.377 84.68C560.428 84.68 556.502 86.1733 553.601 89.16C550.785 92.0613 549.377 96.2853 549.377 101.832V141H531.457V70.088H549.377V78.664C551.681 75.6773 554.625 73.3307 558.209 71.624C561.878 69.9173 565.889 69.064 570.241 69.064C575.788 69.064 580.737 70.2587 585.089 72.648C589.441 74.952 592.812 78.28 595.201 82.632C597.505 78.536 600.833 75.2507 605.185 72.776C609.622 70.3013 614.401 69.064 619.521 69.064ZM674.67 61.64C671.513 61.64 668.867 60.6587 666.734 58.696C664.686 56.648 663.662 54.1307 663.662 51.144C663.662 48.1573 664.686 45.6827 666.734 43.72C668.867 41.672 671.513 40.648 674.67 40.648C677.827 40.648 680.43 41.672 682.478 43.72C684.611 45.6827 685.678 48.1573 685.678 51.144C685.678 54.1307 684.611 56.648 682.478 58.696C680.43 60.6587 677.827 61.64 674.67 61.64ZM683.502 70.088V141H665.582V70.088H683.502ZM696.599 105.288C696.599 98.12 698.007 91.7627 700.823 86.216C703.724 80.6693 707.607 76.4027 712.471 73.416C717.42 70.4293 722.924 68.936 728.983 68.936C734.274 68.936 738.882 70.0027 742.807 72.136C746.818 74.2693 750.018 76.9573 752.407 80.2V70.088H770.455V141H752.407V130.632C750.103 133.96 746.903 136.733 742.807 138.952C738.796 141.085 734.146 142.152 728.855 142.152C722.882 142.152 717.42 140.616 712.471 137.544C707.607 134.472 703.724 130.163 700.823 124.616C698.007 118.984 696.599 112.541 696.599 105.288ZM752.407 105.544C752.407 101.192 751.554 97.48 749.847 94.408C748.14 91.2507 745.836 88.8613 742.935 87.24C740.034 85.5333 736.919 84.68 733.591 84.68C730.263 84.68 727.191 85.4907 724.375 87.112C721.559 88.7333 719.255 91.1227 717.463 94.28C715.756 97.352 714.903 101.021 714.903 105.288C714.903 109.555 715.756 113.309 717.463 116.552C719.255 119.709 721.559 122.141 724.375 123.848C727.276 125.555 730.348 126.408 733.591 126.408C736.919 126.408 740.034 125.597 742.935 123.976C745.836 122.269 748.14 119.88 749.847 116.808C751.554 113.651 752.407 109.896 752.407 105.544Z" fill="#333333"/>
<path d="M129.34 162.16L123.86 184.4H122.06L127.52 162.16H129.34ZM137.612 174.7V176.14H136.152C135.472 176.14 134.905 176.213 134.452 176.36C134.012 176.493 133.678 176.693 133.452 176.96C133.238 177.227 133.132 177.567 133.132 177.98C133.132 178.42 133.258 178.773 133.512 179.04C133.765 179.293 134.105 179.48 134.532 179.6C134.958 179.707 135.438 179.76 135.972 179.76C136.718 179.76 137.372 179.673 137.932 179.5C138.505 179.327 139.012 179.133 139.452 178.92V180.46C139.185 180.607 138.878 180.74 138.532 180.86C138.185 180.967 137.792 181.047 137.352 181.1C136.912 181.167 136.418 181.2 135.872 181.2C134.858 181.2 134.018 181.067 133.352 180.8C132.685 180.52 132.185 180.147 131.852 179.68C131.532 179.2 131.372 178.667 131.372 178.08C131.372 177.547 131.478 177.113 131.692 176.78C131.918 176.433 132.212 176.16 132.572 175.96C132.932 175.747 133.325 175.58 133.752 175.46V175.36C133.152 175.173 132.665 174.887 132.292 174.5C131.932 174.1 131.752 173.573 131.752 172.92C131.752 172.32 131.925 171.807 132.272 171.38C132.632 170.953 133.118 170.633 133.732 170.42C134.358 170.193 135.072 170.08 135.872 170.08C136.392 170.08 136.858 170.113 137.272 170.18C137.685 170.233 138.072 170.32 138.432 170.44C138.792 170.547 139.145 170.68 139.492 170.84L138.832 172.24C138.392 172.04 137.938 171.873 137.472 171.74C137.018 171.607 136.478 171.54 135.852 171.54C135.052 171.54 134.445 171.667 134.032 171.92C133.632 172.173 133.432 172.553 133.432 173.06C133.432 173.647 133.705 174.067 134.252 174.32C134.812 174.573 135.558 174.7 136.492 174.7H137.612ZM142.3 181.12C141.953 181.12 141.66 181 141.42 180.76C141.18 180.52 141.06 180.227 141.06 179.88C141.06 179.533 141.18 179.24 141.42 179C141.66 178.76 141.953 178.64 142.3 178.64C142.633 178.64 142.913 178.76 143.14 179C143.38 179.24 143.5 179.533 143.5 179.88C143.5 180.227 143.38 180.52 143.14 180.76C142.913 181 142.633 181.12 142.3 181.12ZM152.039 181L147.739 176.16V181H145.919V166.2H147.739V174.9L151.959 170.04H154.499L149.339 175.5L154.519 181H152.039ZM158.432 170.08C159.379 170.08 160.205 170.267 160.912 170.64C161.619 171 162.172 171.573 162.572 172.36C162.972 173.147 163.172 174.173 163.172 175.44C163.172 176.76 162.945 177.847 162.492 178.7C162.052 179.553 161.452 180.187 160.692 180.6C159.945 181 159.099 181.2 158.152 181.2C157.579 181.2 157.072 181.147 156.632 181.04C156.205 180.947 155.812 180.807 155.452 180.62V179.06C155.825 179.233 156.232 179.38 156.672 179.5C157.112 179.62 157.612 179.68 158.172 179.68C158.892 179.68 159.485 179.52 159.952 179.2C160.419 178.88 160.765 178.413 160.992 177.8C161.232 177.173 161.352 176.413 161.352 175.52C161.352 174.187 161.099 173.2 160.592 172.56C160.099 171.92 159.319 171.6 158.252 171.6C157.879 171.6 157.465 171.647 157.012 171.74C156.572 171.833 156.192 171.96 155.872 172.12L155.332 170.66C155.652 170.5 156.092 170.367 156.652 170.26C157.225 170.14 157.819 170.08 158.432 170.08ZM166.681 165.8V171.08H165.081V165.8H166.681ZM174.364 169.84C175.698 169.84 176.778 170.247 177.604 171.06C178.431 171.86 178.844 173.02 178.844 174.54V181H177.044V174.8C177.044 173.707 176.771 172.873 176.224 172.3C175.678 171.713 174.931 171.42 173.984 171.42C173.024 171.42 172.258 171.72 171.684 172.32C171.124 172.92 170.844 173.793 170.844 174.94V181H169.024V170.04H170.844V171.6C171.204 171.04 171.691 170.607 172.304 170.3C172.931 169.993 173.618 169.84 174.364 169.84ZM184.037 170.08C184.984 170.08 185.811 170.267 186.517 170.64C187.224 171 187.777 171.573 188.177 172.36C188.577 173.147 188.777 174.173 188.777 175.44C188.777 176.76 188.551 177.847 188.097 178.7C187.657 179.553 187.057 180.187 186.297 180.6C185.551 181 184.704 181.2 183.757 181.2C183.184 181.2 182.677 181.147 182.237 181.04C181.811 180.947 181.417 180.807 181.057 180.62V179.06C181.431 179.233 181.837 179.38 182.277 179.5C182.717 179.62 183.217 179.68 183.777 179.68C184.497 179.68 185.091 179.52 185.557 179.2C186.024 178.88 186.371 178.413 186.597 177.8C186.837 177.173 186.957 176.413 186.957 175.52C186.957 174.187 186.704 173.2 186.197 172.56C185.704 171.92 184.924 171.6 183.857 171.6C183.484 171.6 183.071 171.647 182.617 171.74C182.177 171.833 181.797 171.96 181.477 172.12L180.937 170.66C181.257 170.5 181.697 170.367 182.257 170.26C182.831 170.14 183.424 170.08 184.037 170.08ZM192.007 181.12C191.66 181.12 191.367 181 191.127 180.76C190.887 180.52 190.767 180.227 190.767 179.88C190.767 179.533 190.887 179.24 191.127 179C191.367 178.76 191.66 178.64 192.007 178.64C192.34 178.64 192.62 178.76 192.847 179C193.087 179.24 193.207 179.533 193.207 179.88C193.207 180.227 193.087 180.52 192.847 180.76C192.62 181 192.34 181.12 192.007 181.12ZM208.806 169.84C209.659 169.84 210.419 170.02 211.086 170.38C211.753 170.727 212.279 171.253 212.666 171.96C213.053 172.667 213.246 173.527 213.246 174.54V181H211.446V174.8C211.446 173.707 211.173 172.873 210.626 172.3C210.093 171.713 209.366 171.42 208.446 171.42C207.499 171.42 206.746 171.727 206.186 172.34C205.626 172.94 205.346 173.813 205.346 174.96V181H203.546V174.8C203.546 173.707 203.273 172.873 202.726 172.3C202.193 171.713 201.466 171.42 200.546 171.42C199.599 171.42 198.846 171.727 198.286 172.34C197.726 172.94 197.446 173.813 197.446 174.96V181H195.626V170.04H197.446V171.62C197.806 171.047 198.286 170.607 198.886 170.3C199.499 169.993 200.173 169.84 200.906 169.84C201.826 169.84 202.639 170.047 203.346 170.46C204.053 170.873 204.579 171.48 204.926 172.28C205.233 171.507 205.739 170.907 206.446 170.48C207.153 170.053 207.939 169.84 208.806 169.84ZM217.211 168.26C216.865 168.26 216.571 168.14 216.331 167.9C216.105 167.66 215.991 167.367 215.991 167.02C215.991 166.673 216.105 166.38 216.331 166.14C216.571 165.9 216.865 165.78 217.211 165.78C217.558 165.78 217.845 165.9 218.071 166.14C218.311 166.38 218.431 166.673 218.431 167.02C218.431 167.367 218.311 167.66 218.071 167.9C217.845 168.14 217.558 168.26 217.211 168.26ZM218.111 183.38C218.111 184.353 217.865 185.067 217.371 185.52C216.878 185.973 216.158 186.2 215.211 186.2H214.151V184.66H214.911C215.418 184.66 215.771 184.56 215.971 184.36C216.185 184.16 216.291 183.82 216.291 183.34V170.04H218.111V183.38ZM220.512 175.48C220.512 174.36 220.739 173.38 221.192 172.54C221.646 171.687 222.266 171.027 223.052 170.56C223.852 170.093 224.739 169.86 225.712 169.86C226.672 169.86 227.506 170.067 228.212 170.48C228.919 170.893 229.446 171.413 229.792 172.04V170.04H231.632V181H229.792V178.96C229.432 179.6 228.892 180.133 228.172 180.56C227.466 180.973 226.639 181.18 225.692 181.18C224.719 181.18 223.839 180.94 223.052 180.46C222.266 179.98 221.646 179.307 221.192 178.44C220.739 177.573 220.512 176.587 220.512 175.48ZM229.792 175.5C229.792 174.673 229.626 173.953 229.292 173.34C228.959 172.727 228.506 172.26 227.932 171.94C227.372 171.607 226.752 171.44 226.072 171.44C225.392 171.44 224.772 171.6 224.212 171.92C223.652 172.24 223.206 172.707 222.872 173.32C222.539 173.933 222.372 174.653 222.372 175.48C222.372 176.32 222.539 177.053 222.872 177.68C223.206 178.293 223.652 178.767 224.212 179.1C224.772 179.42 225.392 179.58 226.072 179.58C226.752 179.58 227.372 179.42 227.932 179.1C228.506 178.767 228.959 178.293 229.292 177.68C229.626 177.053 229.792 176.327 229.792 175.5ZM241.508 162.16L236.028 184.4H234.228L239.688 162.16H241.508Z" fill="#333333"/>
<path d="M25 50.6245C25 45.309 29.309 41 34.6245 41C39.94 41 44.249 45.309 44.249 50.6245V109.181C44.249 114.496 39.94 118.805 34.6245 118.805C29.309 118.805 25 114.496 25 109.181V50.6245Z" fill="#333333"/>
<rect x="52.3125" y="52.0975" width="20.5323" height="77.8051" rx="10.2661" fill="#333333"/>
<rect x="81.751" y="63.1949" width="19.249" height="77.8051" rx="9.6245" fill="#333333"/>
</g>
<defs>
<filter id="filter0_d_2_39" x="0" y="15.648" width="795.455" height="195.552" filterUnits="userSpaceOnUse" color-interpolation-filters="sRGB">
<feFlood flood-opacity="0" result="BackgroundImageFix"/>
<feColorMatrix in="SourceAlpha" type="matrix" values="0 0 0 0 0 0 0 0 0 0 0 0 0 0 0 0 0 0 127 0" result="hardAlpha"/>
<feOffset/>
<feGaussianBlur stdDeviation="12.5"/>
<feComposite in2="hardAlpha" operator="out"/>
<feColorMatrix type="matrix" values="0 0 0 0 0 0 0 0 0 0 0 0 0 0 0 0 0 0 0.5 0"/>
<feBlend mode="normal" in2="BackgroundImageFix" result="effect1_dropShadow_2_39"/>
<feBlend mode="normal" in="SourceGraphic" in2="effect1_dropShadow_2_39" result="shape"/>
</filter>
</defs>
</svg>
