<svg width="524" height="585" viewBox="0 0 524 585" fill="none" xmlns="http://www.w3.org/2000/svg">
<g filter="url(#filter0_d_106_38)">
<path d="M256.508 52.1641C259.908 50.2056 264.092 50.2056 267.492 52.164L467.802 167.576C471.21 169.54 473.31 173.174 473.31 177.107V407.893C473.31 411.826 471.21 415.46 467.802 417.424L267.492 532.836C264.092 534.794 259.908 534.794 256.508 532.836L56.1983 417.424C52.7901 415.46 50.6898 411.826 50.6898 407.893V177.107C50.6898 173.174 52.7901 169.54 56.1983 167.576L256.508 52.1641Z" fill="white" fill-opacity="0.2" shape-rendering="crispEdges"/>
<path d="M265.245 56.0632L465.555 171.475C467.569 172.636 468.81 174.783 468.81 177.107V407.893C468.81 410.217 467.569 412.364 465.555 413.525L265.245 528.937C263.236 530.094 260.764 530.094 258.755 528.937L58.4448 413.525C56.4309 412.364 55.1898 410.217 55.1898 407.893V177.107C55.1898 174.783 56.4309 172.636 58.4448 171.475L258.755 56.0632C260.764 54.9059 263.236 54.9059 265.245 56.0632Z" stroke="url(#paint0_linear_106_38)" stroke-width="9" shape-rendering="crispEdges"/>
</g>
<defs>
<filter id="filter0_d_106_38" x="0.689819" y="0.69519" width="522.62" height="583.61" filterUnits="userSpaceOnUse" color-interpolation-filters="sRGB">
<feFlood flood-opacity="0" result="BackgroundImageFix"/>
<feColorMatrix in="SourceAlpha" type="matrix" values="0 0 0 0 0 0 0 0 0 0 0 0 0 0 0 0 0 0 127 0" result="hardAlpha"/>
<feOffset/>
<feGaussianBlur stdDeviation="25"/>
<feComposite in2="hardAlpha" operator="out"/>
<feColorMatrix type="matrix" values="0 0 0 0 0 0 0 0 0 0 0 0 0 0 0 0 0 0 0.3 0"/>
<feBlend mode="normal" in2="BackgroundImageFix" result="effect1_dropShadow_106_38"/>
<feBlend mode="normal" in="SourceGraphic" in2="effect1_dropShadow_106_38" result="shape"/>
</filter>
<linearGradient id="paint0_linear_106_38" x1="560.087" y1="-23.6442" x2="-1.57059" y2="546.486" gradientUnits="userSpaceOnUse">
<stop stop-color="#556B2F"/>
<stop offset="1" stop-color="#8B4513"/>
</linearGradient>
</defs>
</svg>
