<svg width="1053" height="621" viewBox="0 0 1053 621" fill="none" xmlns="http://www.w3.org/2000/svg">
<path d="M275 137.309C276.238 136.595 277.762 136.595 279 137.309L317.301 159.423C318.539 160.137 319.301 161.458 319.301 162.887V207.113C319.301 208.542 318.539 209.863 317.301 210.577L279 232.691C277.762 233.405 276.238 233.405 275 232.691L236.699 210.577C235.461 209.863 234.699 208.542 234.699 207.113V162.887C234.699 161.458 235.461 160.137 236.699 159.423L275 137.309Z" stroke="#777777" stroke-width="2"/>
<path d="M448 137.309C449.238 136.595 450.762 136.595 452 137.309L490.301 159.423C491.539 160.137 492.301 161.458 492.301 162.887V207.113C492.301 208.542 491.539 209.863 490.301 210.577L452 232.691C450.762 233.405 449.238 233.405 448 232.691L409.699 210.577C408.461 209.863 407.699 208.542 407.699 207.113V162.887C407.699 161.458 408.461 160.137 409.699 159.423L448 137.309Z" stroke="#777777" stroke-width="2"/>
<path d="M405 211.309C406.238 210.595 407.762 210.595 409 211.309L447.301 233.423C448.539 234.137 449.301 235.458 449.301 236.887V281.113C449.301 282.542 448.539 283.863 447.301 284.577L409 306.691C407.762 307.405 406.238 307.405 405 306.691L366.699 284.577C365.461 283.863 364.699 282.542 364.699 281.113V236.887C364.699 235.458 365.461 234.137 366.699 233.423L405 211.309Z" stroke="#777777" stroke-width="2"/>
<path d="M319 211.309C320.238 210.595 321.762 210.595 323 211.309L361.301 233.423C362.539 234.137 363.301 235.458 363.301 236.887V281.113C363.301 282.542 362.539 283.863 361.301 284.577L323 306.691C321.762 307.405 320.238 307.405 319 306.691L280.699 284.577C279.461 283.863 278.699 282.542 278.699 281.113V236.887C278.699 235.458 279.461 234.137 280.699 233.423L319 211.309Z" stroke="#777777" stroke-width="2"/>
<path d="M233 211.309C234.238 210.595 235.762 210.595 237 211.309L275.301 233.423C276.539 234.137 277.301 235.458 277.301 236.887V281.113C277.301 282.542 276.539 283.863 275.301 284.577L237 306.691C235.762 307.405 234.238 307.405 233 306.691L194.699 284.577C193.461 283.863 192.699 282.542 192.699 281.113V236.887C192.699 235.458 193.461 234.137 194.699 233.423L233 211.309Z" stroke="#777777" stroke-width="2"/>
<path d="M491 211.309C492.238 210.595 493.762 210.595 495 211.309L533.301 233.423C534.539 234.137 535.301 235.458 535.301 236.887V281.113C535.301 282.542 534.539 283.863 533.301 284.577L495 306.691C493.762 307.405 492.238 307.405 491 306.691L452.699 284.577C451.461 283.863 450.699 282.542 450.699 281.113V236.887C450.699 235.458 451.461 234.137 452.699 233.423L491 211.309Z" stroke="#777777" stroke-width="2"/>
<path d="M448 286.309C449.238 285.595 450.762 285.595 452 286.309L490.301 308.423C491.539 309.137 492.301 310.458 492.301 311.887V356.113C492.301 357.542 491.539 358.863 490.301 359.577L452 381.691C450.762 382.405 449.238 382.405 448 381.691L409.699 359.577C408.461 358.863 407.699 357.542 407.699 356.113V311.887C407.699 310.458 408.461 309.137 409.699 308.423L448 286.309Z" stroke="#777777" stroke-width="2"/>
<path d="M362 286.309C363.238 285.595 364.762 285.595 366 286.309L404.301 308.423C405.539 309.137 406.301 310.458 406.301 311.887V356.113C406.301 357.542 405.539 358.863 404.301 359.577L366 381.691C364.762 382.405 363.238 382.405 362 381.691L323.699 359.577C322.461 358.863 321.699 357.542 321.699 356.113V311.887C321.699 310.458 322.461 309.137 323.699 308.423L362 286.309Z" stroke="#777777" stroke-width="2"/>
<path d="M276 286.309C277.238 285.595 278.762 285.595 280 286.309L318.301 308.423C319.539 309.137 320.301 310.458 320.301 311.887V356.113C320.301 357.542 319.539 358.863 318.301 359.577L280 381.691C278.762 382.405 277.238 382.405 276 381.691L237.699 359.577C236.461 358.863 235.699 357.542 235.699 356.113V311.887C235.699 310.458 236.461 309.137 237.699 308.423L276 286.309Z" stroke="#777777" stroke-width="2"/>
<path d="M362 137.309C363.238 136.595 364.762 136.595 366 137.309L404.301 159.423C405.539 160.137 406.301 161.458 406.301 162.887V207.113C406.301 208.542 405.539 209.863 404.301 210.577L366 232.691C364.762 233.405 363.238 233.405 362 232.691L323.699 210.577C322.461 209.863 321.699 208.542 321.699 207.113V162.887C321.699 161.458 322.461 160.137 323.699 159.423L362 137.309Z" stroke="#777777" stroke-width="2"/>
<path d="M276 137.309C277.238 136.595 278.762 136.595 280 137.309L318.301 159.423C319.539 160.137 320.301 161.458 320.301 162.887V207.113C320.301 208.542 319.539 209.863 318.301 210.577L280 232.691C278.762 233.405 277.238 233.405 276 232.691L237.699 210.577C236.461 209.863 235.699 208.542 235.699 207.113V162.887C235.699 161.458 236.461 160.137 237.699 159.423L276 137.309Z" stroke="#777777" stroke-width="2"/>
<path d="M533 287.309C534.238 286.595 535.762 286.595 537 287.309L575.301 309.423C576.539 310.137 577.301 311.458 577.301 312.887V357.113C577.301 358.542 576.539 359.863 575.301 360.577L537 382.691C535.762 383.405 534.238 383.405 533 382.691L494.699 360.577C493.461 359.863 492.699 358.542 492.699 357.113V312.887C492.699 311.458 493.461 310.137 494.699 309.423L533 287.309Z" stroke="#777777" stroke-width="2"/>
<path d="M706 287.309C707.238 286.595 708.762 286.595 710 287.309L748.301 309.423C749.539 310.137 750.301 311.458 750.301 312.887V357.113C750.301 358.542 749.539 359.863 748.301 360.577L710 382.691C708.762 383.405 707.238 383.405 706 382.691L667.699 360.577C666.461 359.863 665.699 358.542 665.699 357.113V312.887C665.699 311.458 666.461 310.137 667.699 309.423L706 287.309Z" stroke="#777777" stroke-width="2"/>
<path d="M663 361.309C664.238 360.595 665.762 360.595 667 361.309L705.301 383.423C706.539 384.137 707.301 385.458 707.301 386.887V431.113C707.301 432.542 706.539 433.863 705.301 434.577L667 456.691C665.762 457.405 664.238 457.405 663 456.691L624.699 434.577C623.461 433.863 622.699 432.542 622.699 431.113V386.887C622.699 385.458 623.461 384.137 624.699 383.423L663 361.309Z" stroke="#777777" stroke-width="2"/>
<path d="M577 361.309C578.238 360.595 579.762 360.595 581 361.309L619.301 383.423C620.539 384.137 621.301 385.458 621.301 386.887V431.113C621.301 432.542 620.539 433.863 619.301 434.577L581 456.691C579.762 457.405 578.238 457.405 577 456.691L538.699 434.577C537.461 433.863 536.699 432.542 536.699 431.113V386.887C536.699 385.458 537.461 384.137 538.699 383.423L577 361.309Z" stroke="#777777" stroke-width="2"/>
<path d="M491 361.309C492.238 360.595 493.762 360.595 495 361.309L533.301 383.423C534.539 384.137 535.301 385.458 535.301 386.887V431.113C535.301 432.542 534.539 433.863 533.301 434.577L495 456.691C493.762 457.405 492.238 457.405 491 456.691L452.699 434.577C451.461 433.863 450.699 432.542 450.699 431.113V386.887C450.699 385.458 451.461 384.137 452.699 383.423L491 361.309Z" stroke="#777777" stroke-width="2"/>
<path d="M749 361.309C750.238 360.595 751.762 360.595 753 361.309L791.301 383.423C792.539 384.137 793.301 385.458 793.301 386.887V431.113C793.301 432.542 792.539 433.863 791.301 434.577L753 456.691C751.762 457.405 750.238 457.405 749 456.691L710.699 434.577C709.461 433.863 708.699 432.542 708.699 431.113V386.887C708.699 385.458 709.461 384.137 710.699 383.423L749 361.309Z" stroke="#777777" stroke-width="2"/>
<path d="M706 436.309C707.238 435.595 708.762 435.595 710 436.309L748.301 458.423C749.539 459.137 750.301 460.458 750.301 461.887V506.113C750.301 507.542 749.539 508.863 748.301 509.577L710 531.691C708.762 532.405 707.238 532.405 706 531.691L667.699 509.577C666.461 508.863 665.699 507.542 665.699 506.113V461.887C665.699 460.458 666.461 459.137 667.699 458.423L706 436.309Z" stroke="#777777" stroke-width="2"/>
<path d="M620 436.309C621.238 435.595 622.762 435.595 624 436.309L662.301 458.423C663.539 459.137 664.301 460.458 664.301 461.887V506.113C664.301 507.542 663.539 508.863 662.301 509.577L624 531.691C622.762 532.405 621.238 532.405 620 531.691L581.699 509.577C580.461 508.863 579.699 507.542 579.699 506.113V461.887C579.699 460.458 580.461 459.137 581.699 458.423L620 436.309Z" stroke="#777777" stroke-width="2"/>
<path d="M534 436.309C535.238 435.595 536.762 435.595 538 436.309L576.301 458.423C577.539 459.137 578.301 460.458 578.301 461.887V506.113C578.301 507.542 577.539 508.863 576.301 509.577L538 531.691C536.762 532.405 535.238 532.405 534 531.691L495.699 509.577C494.461 508.863 493.699 507.542 493.699 506.113V461.887C493.699 460.458 494.461 459.137 495.699 458.423L534 436.309Z" stroke="#777777" stroke-width="2"/>
<path d="M620 287.309C621.238 286.595 622.762 286.595 624 287.309L662.301 309.423C663.539 310.137 664.301 311.458 664.301 312.887V357.113C664.301 358.542 663.539 359.863 662.301 360.577L624 382.691C622.762 383.405 621.238 383.405 620 382.691L581.699 360.577C580.461 359.863 579.699 358.542 579.699 357.113V312.887C579.699 311.458 580.461 310.137 581.699 309.423L620 287.309Z" stroke="#777777" stroke-width="2"/>
<path d="M534 287.309C535.238 286.595 536.762 286.595 538 287.309L576.301 309.423C577.539 310.137 578.301 311.458 578.301 312.887V357.113C578.301 358.542 577.539 359.863 576.301 360.577L538 382.691C536.762 383.405 535.238 383.405 534 382.691L495.699 360.577C494.461 359.863 493.699 358.542 493.699 357.113V312.887C493.699 311.458 494.461 310.137 495.699 309.423L534 287.309Z" stroke="#777777" stroke-width="2"/>
<path d="M705 237.309C706.238 236.595 707.762 236.595 709 237.309L747.301 259.423C748.539 260.137 749.301 261.458 749.301 262.887V307.113C749.301 308.542 748.539 309.863 747.301 310.577L709 332.691C707.762 333.405 706.238 333.405 705 332.691L666.699 310.577C665.461 309.863 664.699 308.542 664.699 307.113V262.887C664.699 261.458 665.461 260.137 666.699 259.423L705 237.309Z" stroke="#777777" stroke-width="2"/>
<path d="M878 237.309C879.238 236.595 880.762 236.595 882 237.309L920.301 259.423C921.539 260.137 922.301 261.458 922.301 262.887V307.113C922.301 308.542 921.539 309.863 920.301 310.577L882 332.691C880.762 333.405 879.238 333.405 878 332.691L839.699 310.577C838.461 309.863 837.699 308.542 837.699 307.113V262.887C837.699 261.458 838.461 260.137 839.699 259.423L878 237.309Z" stroke="#777777" stroke-width="2"/>
<path d="M835 311.309C836.238 310.595 837.762 310.595 839 311.309L877.301 333.423C878.539 334.137 879.301 335.458 879.301 336.887V381.113C879.301 382.542 878.539 383.863 877.301 384.577L839 406.691C837.762 407.405 836.238 407.405 835 406.691L796.699 384.577C795.461 383.863 794.699 382.542 794.699 381.113V336.887C794.699 335.458 795.461 334.137 796.699 333.423L835 311.309Z" stroke="#777777" stroke-width="2"/>
<path d="M749 311.309C750.238 310.595 751.762 310.595 753 311.309L791.301 333.423C792.539 334.137 793.301 335.458 793.301 336.887V381.113C793.301 382.542 792.539 383.863 791.301 384.577L753 406.691C751.762 407.405 750.238 407.405 749 406.691L710.699 384.577C709.461 383.863 708.699 382.542 708.699 381.113V336.887C708.699 335.458 709.461 334.137 710.699 333.423L749 311.309Z" stroke="#777777" stroke-width="2"/>
<path d="M663 311.309C664.238 310.595 665.762 310.595 667 311.309L705.301 333.423C706.539 334.137 707.301 335.458 707.301 336.887V381.113C707.301 382.542 706.539 383.863 705.301 384.577L667 406.691C665.762 407.405 664.238 407.405 663 406.691L624.699 384.577C623.461 383.863 622.699 382.542 622.699 381.113V336.887C622.699 335.458 623.461 334.137 624.699 333.423L663 311.309Z" stroke="#777777" stroke-width="2"/>
<path d="M921 311.309C922.238 310.595 923.762 310.595 925 311.309L963.301 333.423C964.539 334.137 965.301 335.458 965.301 336.887V381.113C965.301 382.542 964.539 383.863 963.301 384.577L925 406.691C923.762 407.405 922.238 407.405 921 406.691L882.699 384.577C881.461 383.863 880.699 382.542 880.699 381.113V336.887C880.699 335.458 881.461 334.137 882.699 333.423L921 311.309Z" stroke="#777777" stroke-width="2"/>
<path d="M878 386.309C879.238 385.595 880.762 385.595 882 386.309L920.301 408.423C921.539 409.137 922.301 410.458 922.301 411.887V456.113C922.301 457.542 921.539 458.863 920.301 459.577L882 481.691C880.762 482.405 879.238 482.405 878 481.691L839.699 459.577C838.461 458.863 837.699 457.542 837.699 456.113V411.887C837.699 410.458 838.461 409.137 839.699 408.423L878 386.309Z" stroke="#777777" stroke-width="2"/>
<path d="M792 386.309C793.238 385.595 794.762 385.595 796 386.309L834.301 408.423C835.539 409.137 836.301 410.458 836.301 411.887V456.113C836.301 457.542 835.539 458.863 834.301 459.577L796 481.691C794.762 482.405 793.238 482.405 792 481.691L753.699 459.577C752.461 458.863 751.699 457.542 751.699 456.113V411.887C751.699 410.458 752.461 409.137 753.699 408.423L792 386.309Z" stroke="#777777" stroke-width="2"/>
<path d="M706 386.309C707.238 385.595 708.762 385.595 710 386.309L748.301 408.423C749.539 409.137 750.301 410.458 750.301 411.887V456.113C750.301 457.542 749.539 458.863 748.301 459.577L710 481.691C708.762 482.405 707.238 482.405 706 481.691L667.699 459.577C666.461 458.863 665.699 457.542 665.699 456.113V411.887C665.699 410.458 666.461 409.137 667.699 408.423L706 386.309Z" stroke="#777777" stroke-width="2"/>
<path d="M792 237.309C793.238 236.595 794.762 236.595 796 237.309L834.301 259.423C835.539 260.137 836.301 261.458 836.301 262.887V307.113C836.301 308.542 835.539 309.863 834.301 310.577L796 332.691C794.762 333.405 793.238 333.405 792 332.691L753.699 310.577C752.461 309.863 751.699 308.542 751.699 307.113V262.887C751.699 261.458 752.461 260.137 753.699 259.423L792 237.309Z" stroke="#777777" stroke-width="2"/>
<path d="M706 237.309C707.238 236.595 708.762 236.595 710 237.309L748.301 259.423C749.539 260.137 750.301 261.458 750.301 262.887V307.113C750.301 308.542 749.539 309.863 748.301 310.577L710 332.691C708.762 333.405 707.238 333.405 706 332.691L667.699 310.577C666.461 309.863 665.699 308.542 665.699 307.113V262.887C665.699 261.458 666.461 260.137 667.699 259.423L706 237.309Z" stroke="#777777" stroke-width="2"/>
<path d="M447 336.309C448.238 335.595 449.762 335.595 451 336.309L489.301 358.423C490.539 359.137 491.301 360.458 491.301 361.887V406.113C491.301 407.542 490.539 408.863 489.301 409.577L451 431.691C449.762 432.405 448.238 432.405 447 431.691L408.699 409.577C407.461 408.863 406.699 407.542 406.699 406.113V361.887C406.699 360.458 407.461 359.137 408.699 358.423L447 336.309Z" stroke="#777777" stroke-width="2"/>
<path d="M620 336.309C621.238 335.595 622.762 335.595 624 336.309L662.301 358.423C663.539 359.137 664.301 360.458 664.301 361.887V406.113C664.301 407.542 663.539 408.863 662.301 409.577L624 431.691C622.762 432.405 621.238 432.405 620 431.691L581.699 409.577C580.461 408.863 579.699 407.542 579.699 406.113V361.887C579.699 360.458 580.461 359.137 581.699 358.423L620 336.309Z" stroke="#777777" stroke-width="2"/>
<path d="M577 410.309C578.238 409.595 579.762 409.595 581 410.309L619.301 432.423C620.539 433.137 621.301 434.458 621.301 435.887V480.113C621.301 481.542 620.539 482.863 619.301 483.577L581 505.691C579.762 506.405 578.238 506.405 577 505.691L538.699 483.577C537.461 482.863 536.699 481.542 536.699 480.113V435.887C536.699 434.458 537.461 433.137 538.699 432.423L577 410.309Z" stroke="#777777" stroke-width="2"/>
<path d="M491 410.309C492.238 409.595 493.762 409.595 495 410.309L533.301 432.423C534.539 433.137 535.301 434.458 535.301 435.887V480.113C535.301 481.542 534.539 482.863 533.301 483.577L495 505.691C493.762 506.405 492.238 506.405 491 505.691L452.699 483.577C451.461 482.863 450.699 481.542 450.699 480.113V435.887C450.699 434.458 451.461 433.137 452.699 432.423L491 410.309Z" stroke="#777777" stroke-width="2"/>
<path d="M405 410.309C406.238 409.595 407.762 409.595 409 410.309L447.301 432.423C448.539 433.137 449.301 434.458 449.301 435.887V480.113C449.301 481.542 448.539 482.863 447.301 483.577L409 505.691C407.762 506.405 406.238 506.405 405 505.691L366.699 483.577C365.461 482.863 364.699 481.542 364.699 480.113V435.887C364.699 434.458 365.461 433.137 366.699 432.423L405 410.309Z" stroke="#777777" stroke-width="2"/>
<path d="M663 410.309C664.238 409.595 665.762 409.595 667 410.309L705.301 432.423C706.539 433.137 707.301 434.458 707.301 435.887V480.113C707.301 481.542 706.539 482.863 705.301 483.577L667 505.691C665.762 506.405 664.238 506.405 663 505.691L624.699 483.577C623.461 482.863 622.699 481.542 622.699 480.113V435.887C622.699 434.458 623.461 433.137 624.699 432.423L663 410.309Z" stroke="#777777" stroke-width="2"/>
<path d="M620 485.309C621.238 484.595 622.762 484.595 624 485.309L662.301 507.423C663.539 508.137 664.301 509.458 664.301 510.887V555.113C664.301 556.542 663.539 557.863 662.301 558.577L624 580.691C622.762 581.405 621.238 581.405 620 580.691L581.699 558.577C580.461 557.863 579.699 556.542 579.699 555.113V510.887C579.699 509.458 580.461 508.137 581.699 507.423L620 485.309Z" stroke="#777777" stroke-width="2"/>
<path d="M534 485.309C535.238 484.595 536.762 484.595 538 485.309L576.301 507.423C577.539 508.137 578.301 509.458 578.301 510.887V555.113C578.301 556.542 577.539 557.863 576.301 558.577L538 580.691C536.762 581.405 535.238 581.405 534 580.691L495.699 558.577C494.461 557.863 493.699 556.542 493.699 555.113V510.887C493.699 509.458 494.461 508.137 495.699 507.423L534 485.309Z" stroke="#777777" stroke-width="2"/>
<path d="M448 485.309C449.238 484.595 450.762 484.595 452 485.309L490.301 507.423C491.539 508.137 492.301 509.458 492.301 510.887V555.113C492.301 556.542 491.539 557.863 490.301 558.577L452 580.691C450.762 581.405 449.238 581.405 448 580.691L409.699 558.577C408.461 557.863 407.699 556.542 407.699 555.113V510.887C407.699 509.458 408.461 508.137 409.699 507.423L448 485.309Z" stroke="#777777" stroke-width="2"/>
<path d="M534 336.309C535.238 335.595 536.762 335.595 538 336.309L576.301 358.423C577.539 359.137 578.301 360.458 578.301 361.887V406.113C578.301 407.542 577.539 408.863 576.301 409.577L538 431.691C536.762 432.405 535.238 432.405 534 431.691L495.699 409.577C494.461 408.863 493.699 407.542 493.699 406.113V361.887C493.699 360.458 494.461 359.137 495.699 358.423L534 336.309Z" stroke="#777777" stroke-width="2"/>
<path d="M448 336.309C449.238 335.595 450.762 335.595 452 336.309L490.301 358.423C491.539 359.137 492.301 360.458 492.301 361.887V406.113C492.301 407.542 491.539 408.863 490.301 409.577L452 431.691C450.762 432.405 449.238 432.405 448 431.691L409.699 409.577C408.461 408.863 407.699 407.542 407.699 406.113V361.887C407.699 360.458 408.461 359.137 409.699 358.423L448 336.309Z" stroke="#777777" stroke-width="2"/>
<path d="M189 237.309C190.238 236.595 191.762 236.595 193 237.309L231.301 259.423C232.539 260.137 233.301 261.458 233.301 262.887V307.113C233.301 308.542 232.539 309.863 231.301 310.577L193 332.691C191.762 333.405 190.238 333.405 189 332.691L150.699 310.577C149.461 309.863 148.699 308.542 148.699 307.113V262.887C148.699 261.458 149.461 260.137 150.699 259.423L189 237.309Z" stroke="#777777" stroke-width="2"/>
<path d="M362 237.309C363.238 236.595 364.762 236.595 366 237.309L404.301 259.423C405.539 260.137 406.301 261.458 406.301 262.887V307.113C406.301 308.542 405.539 309.863 404.301 310.577L366 332.691C364.762 333.405 363.238 333.405 362 332.691L323.699 310.577C322.461 309.863 321.699 308.542 321.699 307.113V262.887C321.699 261.458 322.461 260.137 323.699 259.423L362 237.309Z" stroke="#777777" stroke-width="2"/>
<path d="M319 311.309C320.238 310.595 321.762 310.595 323 311.309L361.301 333.423C362.539 334.137 363.301 335.458 363.301 336.887V381.113C363.301 382.542 362.539 383.863 361.301 384.577L323 406.691C321.762 407.405 320.238 407.405 319 406.691L280.699 384.577C279.461 383.863 278.699 382.542 278.699 381.113V336.887C278.699 335.458 279.461 334.137 280.699 333.423L319 311.309Z" stroke="#777777" stroke-width="2"/>
<path d="M233 311.309C234.238 310.595 235.762 310.595 237 311.309L275.301 333.423C276.539 334.137 277.301 335.458 277.301 336.887V381.113C277.301 382.542 276.539 383.863 275.301 384.577L237 406.691C235.762 407.405 234.238 407.405 233 406.691L194.699 384.577C193.461 383.863 192.699 382.542 192.699 381.113V336.887C192.699 335.458 193.461 334.137 194.699 333.423L233 311.309Z" stroke="#777777" stroke-width="2"/>
<path d="M147 311.309C148.238 310.595 149.762 310.595 151 311.309L189.301 333.423C190.539 334.137 191.301 335.458 191.301 336.887V381.113C191.301 382.542 190.539 383.863 189.301 384.577L151 406.691C149.762 407.405 148.238 407.405 147 406.691L108.699 384.577C107.461 383.863 106.699 382.542 106.699 381.113V336.887C106.699 335.458 107.461 334.137 108.699 333.423L147 311.309Z" stroke="#777777" stroke-width="2"/>
<path d="M405 311.309C406.238 310.595 407.762 310.595 409 311.309L447.301 333.423C448.539 334.137 449.301 335.458 449.301 336.887V381.113C449.301 382.542 448.539 383.863 447.301 384.577L409 406.691C407.762 407.405 406.238 407.405 405 406.691L366.699 384.577C365.461 383.863 364.699 382.542 364.699 381.113V336.887C364.699 335.458 365.461 334.137 366.699 333.423L405 311.309Z" stroke="#777777" stroke-width="2"/>
<path d="M362 386.309C363.238 385.595 364.762 385.595 366 386.309L404.301 408.423C405.539 409.137 406.301 410.458 406.301 411.887V456.113C406.301 457.542 405.539 458.863 404.301 459.577L366 481.691C364.762 482.405 363.238 482.405 362 481.691L323.699 459.577C322.461 458.863 321.699 457.542 321.699 456.113V411.887C321.699 410.458 322.461 409.137 323.699 408.423L362 386.309Z" stroke="#777777" stroke-width="2"/>
<path d="M276 386.309C277.238 385.595 278.762 385.595 280 386.309L318.301 408.423C319.539 409.137 320.301 410.458 320.301 411.887V456.113C320.301 457.542 319.539 458.863 318.301 459.577L280 481.691C278.762 482.405 277.238 482.405 276 481.691L237.699 459.577C236.461 458.863 235.699 457.542 235.699 456.113V411.887C235.699 410.458 236.461 409.137 237.699 408.423L276 386.309Z" stroke="#777777" stroke-width="2"/>
<path d="M190 386.309C191.238 385.595 192.762 385.595 194 386.309L232.301 408.423C233.539 409.137 234.301 410.458 234.301 411.887V456.113C234.301 457.542 233.539 458.863 232.301 459.577L194 481.691C192.762 482.405 191.238 482.405 190 481.691L151.699 459.577C150.461 458.863 149.699 457.542 149.699 456.113V411.887C149.699 410.458 150.461 409.137 151.699 408.423L190 386.309Z" stroke="#777777" stroke-width="2"/>
<path d="M276 237.309C277.238 236.595 278.762 236.595 280 237.309L318.301 259.423C319.539 260.137 320.301 261.458 320.301 262.887V307.113C320.301 308.542 319.539 309.863 318.301 310.577L280 332.691C278.762 333.405 277.238 333.405 276 332.691L237.699 310.577C236.461 309.863 235.699 308.542 235.699 307.113V262.887C235.699 261.458 236.461 260.137 237.699 259.423L276 237.309Z" stroke="#777777" stroke-width="2"/>
<path d="M190 237.309C191.238 236.595 192.762 236.595 194 237.309L232.301 259.423C233.539 260.137 234.301 261.458 234.301 262.887V307.113C234.301 308.542 233.539 309.863 232.301 310.577L194 332.691C192.762 333.405 191.238 333.405 190 332.691L151.699 310.577C150.461 309.863 149.699 308.542 149.699 307.113V262.887C149.699 261.458 150.461 260.137 151.699 259.423L190 237.309Z" stroke="#777777" stroke-width="2"/>
<path d="M997.474 234.35C998.725 233.615 1000.28 233.615 1001.53 234.35L1021.21 245.913C1022.43 246.631 1023.18 247.943 1023.18 249.362V272.638C1023.18 274.057 1022.43 275.369 1021.21 276.087L1001.53 287.65C1000.28 288.385 998.725 288.385 997.474 287.65L977.792 276.087C976.569 275.369 975.818 274.057 975.818 272.638V249.362C975.818 247.943 976.569 246.631 977.792 245.913L997.474 234.35Z" stroke="#777777" stroke-width="2"/>
<path d="M974.5 249.309C975.738 248.595 977.262 248.595 978.5 249.309L998.182 260.673C999.419 261.387 1000.18 262.708 1000.18 264.137V286.863C1000.18 288.292 999.419 289.613 998.182 290.327L978.5 301.691C977.262 302.405 975.738 302.405 974.5 301.691L954.818 290.327L954.318 291.193L954.818 290.327C953.581 289.613 952.818 288.292 952.818 286.863V264.137C952.818 262.708 953.581 261.387 954.818 260.673L974.5 249.309Z" stroke="#777777" stroke-width="2"/>
<path d="M997.5 206.309C998.738 205.595 1000.26 205.595 1001.5 206.309L1021.18 217.673C1022.42 218.387 1023.18 219.708 1023.18 221.137V243.863C1023.18 245.292 1022.42 246.613 1021.18 247.327L1001.5 258.691C1000.26 259.405 998.738 259.405 997.5 258.691L977.818 247.327L977.318 248.193L977.818 247.327C976.581 246.613 975.818 245.292 975.818 243.863V221.137C975.818 219.708 976.581 218.387 977.818 217.673L997.5 206.309Z" stroke="#777777" stroke-width="2"/>
<path d="M1022.03 249.27C1023.25 248.575 1024.75 248.575 1025.97 249.27L1046.09 260.683C1047.34 261.393 1048.11 262.722 1048.11 264.162V286.838C1048.11 288.278 1047.34 289.607 1046.09 290.317L1025.97 301.73C1024.75 302.425 1023.25 302.425 1022.03 301.73L1001.91 290.317C1000.66 289.607 999.885 288.278 999.885 286.838V264.162C999.885 262.722 1000.66 261.393 1001.91 260.683L1022.03 249.27Z" stroke="#777777" stroke-width="2"/>
<path d="M308.021 540.262C308.01 538.811 308.785 537.469 310.047 536.753L329.901 525.489C331.135 524.789 332.647 524.795 333.875 525.504L354.033 537.143C355.262 537.852 356.023 539.158 356.033 540.576L356.206 563.403C356.217 564.853 355.442 566.196 354.18 566.912L334.325 578.176C333.092 578.875 331.58 578.87 330.352 578.161L310.193 566.522C308.965 565.813 308.204 564.507 308.194 563.088L308.021 540.262Z" stroke="#777777" stroke-width="2"/>
<path d="M309.489 567.638C309.489 566.209 310.251 564.888 311.489 564.174L331.171 552.81C332.408 552.096 333.933 552.096 335.171 552.81L354.853 564.174C356.09 564.888 356.853 566.209 356.853 567.638L356.853 590.364C356.853 591.793 356.09 593.114 354.853 593.828L335.171 605.192L335.671 606.058L335.171 605.192C333.933 605.906 332.408 605.906 331.171 605.192L311.489 593.828C310.251 593.114 309.489 591.793 309.489 590.364L309.489 567.638Z" stroke="#777777" stroke-width="2"/>
<path d="M283.75 526.219C283.75 524.79 284.512 523.47 285.75 522.755L305.432 511.392C306.669 510.677 308.194 510.677 309.432 511.392L329.113 522.755C330.351 523.47 331.113 524.79 331.113 526.219L331.113 548.946C331.113 550.375 330.351 551.695 329.113 552.41L309.432 563.773L309.932 564.639L309.432 563.773C308.194 564.488 306.669 564.488 305.432 563.773L285.75 552.41C284.512 551.695 283.75 550.375 283.75 548.946L283.75 526.219Z" stroke="#777777" stroke-width="2"/>
<path d="M333.218 526.459C333.228 525.052 333.978 523.753 335.192 523.04L355.133 511.327C356.375 510.598 357.912 510.592 359.159 511.312L378.797 522.65C380.044 523.37 380.808 524.704 380.797 526.144L380.624 549.27C380.613 550.678 379.864 551.976 378.65 552.689L358.709 564.403C357.467 565.132 355.93 565.138 354.683 564.418L335.044 553.08C333.797 552.36 333.034 551.025 333.044 549.586L333.218 526.459Z" stroke="#777777" stroke-width="2"/>
<path d="M725.021 160.262C725.01 158.811 725.785 157.469 727.047 156.753L746.901 145.489C748.135 144.789 749.647 144.795 750.875 145.504L771.033 157.143C772.262 157.852 773.023 159.158 773.033 160.576L773.206 183.403C773.217 184.853 772.442 186.196 771.18 186.912L751.325 198.176C750.092 198.875 748.58 198.87 747.352 198.161L727.193 186.522C725.965 185.813 725.204 184.506 725.194 183.088L725.021 160.262Z" stroke="#777777" stroke-width="2"/>
<path d="M726.489 187.638C726.489 186.209 727.251 184.888 728.489 184.174L748.171 172.81C749.408 172.096 750.933 172.096 752.171 172.81L771.853 184.174C773.09 184.888 773.853 186.209 773.853 187.638L773.853 210.364C773.853 211.793 773.09 213.114 771.853 213.828L752.171 225.192L752.671 226.058L752.171 225.192C750.933 225.906 749.408 225.906 748.171 225.192L728.489 213.828C727.251 213.114 726.489 211.793 726.489 210.364L726.489 187.638Z" stroke="#777777" stroke-width="2"/>
<path d="M700.75 146.219C700.75 144.79 701.512 143.47 702.75 142.755L722.432 131.392C723.669 130.677 725.194 130.677 726.432 131.392L746.113 142.755C747.351 143.47 748.113 144.79 748.113 146.219L748.113 168.946C748.113 170.375 747.351 171.695 746.113 172.41L726.432 183.773L726.932 184.639L726.432 183.773C725.194 184.487 723.669 184.487 722.432 183.773L702.75 172.41C701.512 171.695 700.75 170.375 700.75 168.946L700.75 146.219Z" stroke="#777777" stroke-width="2"/>
<path d="M750.218 146.459C750.228 145.052 750.978 143.753 752.192 143.04L772.133 131.327C773.375 130.598 774.912 130.592 776.159 131.312L795.797 142.65C797.044 143.37 797.808 144.704 797.797 146.144L797.624 169.27C797.613 170.678 796.864 171.976 795.65 172.689L775.709 184.403C774.467 185.132 772.929 185.138 771.683 184.418L752.044 173.08C750.797 172.36 750.034 171.025 750.044 169.586L750.218 146.459Z" stroke="#777777" stroke-width="2"/>
<path d="M382.021 63.2621C382.01 61.8115 382.785 60.4686 384.047 59.7527L403.901 48.4892C405.135 47.7893 406.647 47.7951 407.875 48.5042L428.033 60.1426C429.262 60.8517 430.023 62.1582 430.033 63.5764L430.206 86.4026C430.217 87.8533 429.442 89.1962 428.18 89.912L408.325 101.176C407.092 101.875 405.58 101.87 404.352 101.161L384.193 89.5221C382.965 88.813 382.204 87.5065 382.194 86.0883L382.021 63.2621Z" stroke="#777777" stroke-width="2"/>
<path d="M383.489 90.6377C383.489 89.2086 384.251 87.8881 385.489 87.1736L405.171 75.8103C406.408 75.0958 407.933 75.0958 409.171 75.8103L428.853 87.1736C430.09 87.8881 430.853 89.2086 430.853 90.6377L430.853 113.364C430.853 114.793 430.09 116.114 428.853 116.828L409.171 128.192L409.671 129.058L409.171 128.192C407.933 128.906 406.408 128.906 405.171 128.192L385.489 116.828C384.251 116.114 383.489 114.793 383.489 113.364L383.489 90.6377Z" stroke="#777777" stroke-width="2"/>
<path d="M357.75 49.2191C357.75 47.7901 358.512 46.4695 359.75 45.755L379.432 34.3918C380.669 33.6772 382.194 33.6772 383.432 34.3918L403.113 45.755C404.351 46.4695 405.113 47.7901 405.113 49.2191L405.113 71.9456C405.113 73.3747 404.351 74.6952 403.113 75.4097L383.432 86.773L383.932 87.639L383.432 86.773C382.194 87.4875 380.669 87.4875 379.432 86.773L359.75 75.4097C358.512 74.6952 357.75 73.3747 357.75 71.9456L357.75 49.2191Z" stroke="#777777" stroke-width="2"/>
<path d="M407.218 49.4591C407.228 48.0515 407.978 46.7531 409.192 46.0401L429.133 34.3268C430.375 33.5975 431.912 33.5918 433.159 34.3117L452.797 45.6499C454.044 46.3698 454.808 47.7042 454.797 49.144L454.624 72.2703C454.613 73.678 453.864 74.9764 452.65 75.6894L432.709 87.4027C431.467 88.1319 429.929 88.1377 428.683 87.4178L409.044 76.0796C407.797 75.3597 407.034 74.0253 407.044 72.5855L407.218 49.4591Z" stroke="#777777" stroke-width="2"/>
<path d="M51.0209 442.262C51.0099 440.811 51.7853 439.469 53.047 438.753L72.9014 427.489C74.135 426.789 75.6469 426.795 76.8752 427.504L97.0335 439.143C98.2617 439.852 99.0226 441.158 99.0334 442.576L99.206 465.403C99.217 466.853 98.4417 468.196 97.1799 468.912L77.3255 480.176C76.0919 480.875 74.58 480.87 73.3517 480.161L53.1934 468.522C51.9652 467.813 51.2043 466.506 51.1936 465.088L51.0209 442.262Z" stroke="#777777" stroke-width="2"/>
<path d="M52.4891 469.638C52.4891 468.209 53.2515 466.888 54.4891 466.174L74.1708 454.81C75.4084 454.096 76.9332 454.096 78.1708 454.81L97.8526 466.174C99.0902 466.888 99.8526 468.209 99.8526 469.638L99.8526 492.364C99.8526 493.793 99.0902 495.114 97.8526 495.828L78.1708 507.192L78.6708 508.058L78.1708 507.192C76.9332 507.906 75.4084 507.906 74.1708 507.192L54.4891 495.828C53.2515 495.114 52.4891 493.793 52.4891 492.364L52.4891 469.638Z" stroke="#777777" stroke-width="2"/>
<path d="M26.75 428.219C26.75 426.79 27.5124 425.47 28.75 424.755L48.4317 413.392C49.6693 412.677 51.1941 412.677 52.4317 413.392L72.1135 424.755C73.3511 425.47 74.1134 426.79 74.1135 428.219L74.1135 450.946C74.1134 452.375 73.3511 453.695 72.1135 454.41L52.4317 465.773L52.9317 466.639L52.4317 465.773C51.1941 466.487 49.6693 466.487 48.4317 465.773L28.75 454.41C27.5124 453.695 26.75 452.375 26.75 450.946L26.75 428.219Z" stroke="#777777" stroke-width="2"/>
<path d="M76.2178 428.459C76.2284 427.051 76.978 425.753 78.1918 425.04L98.1331 413.327C99.3746 412.598 100.912 412.592 102.159 413.312L121.797 424.65C123.044 425.37 123.808 426.704 123.797 428.144L123.624 451.27C123.613 452.678 122.864 453.976 121.65 454.689L101.709 466.403C100.467 467.132 98.9295 467.138 97.6826 466.418L78.0443 455.08C76.7974 454.36 76.0336 453.025 76.0444 451.585L76.2178 428.459Z" stroke="#777777" stroke-width="2"/>
<path d="M836.474 521.35C837.725 520.615 839.275 520.615 840.526 521.35L860.208 532.913C861.431 533.631 862.182 534.943 862.182 536.362V559.638C862.182 561.057 861.431 562.369 860.208 563.087L840.526 574.65C839.275 575.385 837.725 575.385 836.474 574.65L816.792 563.087C815.569 562.369 814.818 561.057 814.818 559.638V536.362C814.818 534.943 815.569 533.631 816.792 532.913L836.474 521.35Z" stroke="#777777" stroke-width="2"/>
<path d="M813.5 536.309C814.738 535.595 816.262 535.595 817.5 536.309L837.182 547.673C838.419 548.387 839.182 549.708 839.182 551.137V573.863C839.182 575.292 838.419 576.613 837.182 577.327L817.5 588.691C816.262 589.405 814.738 589.405 813.5 588.691L793.818 577.327L793.318 578.193L793.818 577.327C792.581 576.613 791.818 575.292 791.818 573.863V551.137C791.818 549.708 792.581 548.387 793.818 547.673L813.5 536.309Z" stroke="#777777" stroke-width="2"/>
<path d="M836.5 493.309C837.738 492.595 839.262 492.595 840.5 493.309L860.182 504.673C861.419 505.387 862.182 506.708 862.182 508.137V530.863C862.182 532.292 861.419 533.613 860.182 534.327L840.5 545.691C839.262 546.405 837.738 546.405 836.5 545.691L816.818 534.327L816.318 535.193L816.818 534.327C815.581 533.613 814.818 532.292 814.818 530.863V508.137C814.818 506.708 815.581 505.387 816.818 504.673L836.5 493.309Z" stroke="#777777" stroke-width="2"/>
<path d="M861.026 536.27C862.25 535.575 863.75 535.575 864.974 536.27L885.089 547.683C886.341 548.393 887.115 549.722 887.115 551.162V573.838C887.115 575.278 886.341 576.607 885.089 577.317L864.974 588.73C863.75 589.425 862.25 589.425 861.026 588.73L840.911 577.317C839.659 576.607 838.885 575.278 838.885 573.838V551.162C838.885 549.722 839.659 548.393 840.911 547.683L861.026 536.27Z" stroke="#777777" stroke-width="2"/>
<path d="M157.474 136.35C158.725 135.615 160.275 135.615 161.526 136.35L181.208 147.913C182.431 148.631 183.182 149.943 183.182 151.362V174.638C183.182 176.057 182.431 177.369 181.208 178.087L161.526 189.65C160.275 190.385 158.725 190.385 157.474 189.65L137.792 178.087C136.569 177.369 135.818 176.057 135.818 174.638V151.362C135.818 149.943 136.569 148.631 137.792 147.913L157.474 136.35Z" stroke="#777777" stroke-width="2"/>
<path d="M134.5 151.309C135.738 150.595 137.262 150.595 138.5 151.309L158.182 162.673C159.419 163.387 160.182 164.708 160.182 166.137V188.863C160.182 190.292 159.419 191.613 158.182 192.327L138.5 203.691C137.262 204.405 135.738 204.405 134.5 203.691L114.818 192.327L114.318 193.193L114.818 192.327C113.581 191.613 112.818 190.292 112.818 188.863V166.137C112.818 164.708 113.581 163.387 114.818 162.673L134.5 151.309Z" stroke="#777777" stroke-width="2"/>
<path d="M157.5 108.309C158.738 107.595 160.262 107.595 161.5 108.309L181.182 119.673C182.419 120.387 183.182 121.708 183.182 123.137V145.863C183.182 147.292 182.419 148.613 181.182 149.327L161.5 160.691C160.262 161.405 158.738 161.405 157.5 160.691L137.818 149.327L137.318 150.193L137.818 149.327C136.581 148.613 135.818 147.292 135.818 145.863V123.137C135.818 121.708 136.581 120.387 137.818 119.673L157.5 108.309Z" stroke="#777777" stroke-width="2"/>
<path d="M182.026 151.27C183.25 150.575 184.75 150.575 185.974 151.27L206.089 162.683C207.341 163.393 208.115 164.722 208.115 166.162V188.838C208.115 190.278 207.341 191.607 206.089 192.317L185.974 203.73C184.75 204.425 183.25 204.425 182.026 203.73L161.911 192.317C160.659 191.607 159.885 190.278 159.885 188.838V166.162C159.885 164.722 160.659 163.393 161.911 162.683L182.026 151.27Z" stroke="#777777" stroke-width="2"/>
<g filter="url(#filter0_f_117_75)">
<rect x="803.414" y="279.992" width="65.0228" height="255.008" rx="5" fill="#616329"/>
</g>
<g filter="url(#filter1_f_117_75)">
<rect x="662.531" y="189" width="65.0228" height="255.008" rx="5" fill="#6B5B24"/>
</g>
<g filter="url(#filter2_f_117_75)">
<rect x="521.648" y="264.343" width="65.0228" height="255.008" rx="5" fill="#735520"/>
</g>
<g filter="url(#filter3_f_117_75)">
<rect x="380.766" y="189" width="65.0228" height="255.008" rx="5" fill="#7A501C"/>
</g>
<g filter="url(#filter4_f_117_75)">
<rect x="239.883" y="264.343" width="65.0228" height="255.008" rx="5" fill="#824B18"/>
</g>
<g filter="url(#filter5_f_117_75)">
<rect x="99" y="189" width="65.0228" height="255.008" rx="5" fill="#8B4513"/>
</g>
<g filter="url(#filter6_f_117_75)">
<rect x="142" y="232" width="828" height="227" rx="100" fill="black" fill-opacity="0.62"/>
</g>
<path d="M352.752 347.008C352.752 349.568 352.581 351.872 352.24 353.92H300.4C300.827 359.04 302.619 363.051 305.776 365.952C308.933 368.853 312.816 370.304 317.424 370.304C324.08 370.304 328.816 367.445 331.632 361.728H350.96C348.912 368.555 344.987 374.187 339.184 378.624C333.381 382.976 326.256 385.152 317.808 385.152C310.981 385.152 304.837 383.659 299.376 380.672C294 377.6 289.776 373.291 286.704 367.744C283.717 362.197 282.224 355.797 282.224 348.544C282.224 341.205 283.717 334.763 286.704 329.216C289.691 323.669 293.872 319.403 299.248 316.416C304.624 313.429 310.811 311.936 317.808 311.936C324.549 311.936 330.565 313.387 335.856 316.288C341.232 319.189 345.371 323.328 348.272 328.704C351.259 333.995 352.752 340.096 352.752 347.008ZM334.192 341.888C334.107 337.28 332.443 333.611 329.2 330.88C325.957 328.064 321.989 326.656 317.296 326.656C312.859 326.656 309.104 328.021 306.032 330.752C303.045 333.397 301.211 337.109 300.528 341.888H334.192ZM407.816 384L383.752 353.792V384H365.832V289.28H383.752V343.168L407.56 313.088H430.856L399.624 348.672L431.112 384H407.816ZM472.07 385.152C465.243 385.152 459.099 383.659 453.638 380.672C448.177 377.6 443.867 373.291 440.71 367.744C437.638 362.197 436.102 355.797 436.102 348.544C436.102 341.291 437.681 334.891 440.838 329.344C444.081 323.797 448.475 319.531 454.022 316.544C459.569 313.472 465.755 311.936 472.582 311.936C479.409 311.936 485.595 313.472 491.142 316.544C496.689 319.531 501.041 323.797 504.198 329.344C507.441 334.891 509.062 341.291 509.062 348.544C509.062 355.797 507.398 362.197 504.07 367.744C500.827 373.291 496.39 377.6 490.758 380.672C485.211 383.659 478.982 385.152 472.07 385.152ZM472.07 369.536C475.313 369.536 478.342 368.768 481.158 367.232C484.059 365.611 486.363 363.221 488.07 360.064C489.777 356.907 490.63 353.067 490.63 348.544C490.63 341.803 488.838 336.64 485.254 333.056C481.755 329.387 477.446 327.552 472.326 327.552C467.206 327.552 462.897 329.387 459.398 333.056C455.985 336.64 454.278 341.803 454.278 348.544C454.278 355.285 455.942 360.491 459.27 364.16C462.683 367.744 466.95 369.536 472.07 369.536ZM561.503 312.064C569.951 312.064 576.778 314.752 581.983 320.128C587.188 325.419 589.791 332.843 589.791 342.4V384H571.871V344.832C571.871 339.2 570.463 334.891 567.647 331.904C564.831 328.832 560.991 327.296 556.127 327.296C551.178 327.296 547.252 328.832 544.351 331.904C541.535 334.891 540.127 339.2 540.127 344.832V384H522.207V313.088H540.127V321.92C542.516 318.848 545.546 316.459 549.215 314.752C552.97 312.96 557.066 312.064 561.503 312.064ZM638.32 385.152C631.493 385.152 625.349 383.659 619.888 380.672C614.427 377.6 610.117 373.291 606.96 367.744C603.888 362.197 602.352 355.797 602.352 348.544C602.352 341.291 603.931 334.891 607.088 329.344C610.331 323.797 614.725 319.531 620.272 316.544C625.819 313.472 632.005 311.936 638.832 311.936C645.659 311.936 651.845 313.472 657.392 316.544C662.939 319.531 667.291 323.797 670.448 329.344C673.691 334.891 675.312 341.291 675.312 348.544C675.312 355.797 673.648 362.197 670.32 367.744C667.077 373.291 662.64 377.6 657.008 380.672C651.461 383.659 645.232 385.152 638.32 385.152ZM638.32 369.536C641.563 369.536 644.592 368.768 647.408 367.232C650.309 365.611 652.613 363.221 654.32 360.064C656.027 356.907 656.88 353.067 656.88 348.544C656.88 341.803 655.088 336.64 651.504 333.056C648.005 329.387 643.696 327.552 638.576 327.552C633.456 327.552 629.147 329.387 625.648 333.056C622.235 336.64 620.528 341.803 620.528 348.544C620.528 355.285 622.192 360.491 625.52 364.16C628.933 367.744 633.2 369.536 638.32 369.536ZM776.521 312.064C785.225 312.064 792.222 314.752 797.513 320.128C802.889 325.419 805.577 332.843 805.577 342.4V384H787.657V344.832C787.657 339.285 786.249 335.061 783.433 332.16C780.617 329.173 776.777 327.68 771.913 327.68C767.049 327.68 763.166 329.173 760.265 332.16C757.449 335.061 756.041 339.285 756.041 344.832V384H738.121V344.832C738.121 339.285 736.713 335.061 733.897 332.16C731.081 329.173 727.241 327.68 722.377 327.68C717.428 327.68 713.502 329.173 710.601 332.16C707.785 335.061 706.377 339.285 706.377 344.832V384H688.457V313.088H706.377V321.664C708.681 318.677 711.625 316.331 715.209 314.624C718.878 312.917 722.889 312.064 727.241 312.064C732.788 312.064 737.737 313.259 742.089 315.648C746.441 317.952 749.812 321.28 752.201 325.632C754.505 321.536 757.833 318.251 762.185 315.776C766.622 313.301 771.401 312.064 776.521 312.064ZM831.67 304.64C828.513 304.64 825.867 303.659 823.734 301.696C821.686 299.648 820.662 297.131 820.662 294.144C820.662 291.157 821.686 288.683 823.734 286.72C825.867 284.672 828.513 283.648 831.67 283.648C834.827 283.648 837.43 284.672 839.478 286.72C841.611 288.683 842.678 291.157 842.678 294.144C842.678 297.131 841.611 299.648 839.478 301.696C837.43 303.659 834.827 304.64 831.67 304.64ZM840.502 313.088V384H822.582V313.088H840.502ZM853.599 348.288C853.599 341.12 855.007 334.763 857.823 329.216C860.724 323.669 864.607 319.403 869.471 316.416C874.42 313.429 879.924 311.936 885.983 311.936C891.274 311.936 895.882 313.003 899.807 315.136C903.818 317.269 907.018 319.957 909.407 323.2V313.088H927.455V384H909.407V373.632C907.103 376.96 903.903 379.733 899.807 381.952C895.796 384.085 891.146 385.152 885.855 385.152C879.882 385.152 874.42 383.616 869.471 380.544C864.607 377.472 860.724 373.163 857.823 367.616C855.007 361.984 853.599 355.541 853.599 348.288ZM909.407 348.544C909.407 344.192 908.554 340.48 906.847 337.408C905.14 334.251 902.836 331.861 899.935 330.24C897.034 328.533 893.919 327.68 890.591 327.68C887.263 327.68 884.191 328.491 881.375 330.112C878.559 331.733 876.255 334.123 874.463 337.28C872.756 340.352 871.903 344.021 871.903 348.288C871.903 352.555 872.756 356.309 874.463 359.552C876.255 362.709 878.559 365.141 881.375 366.848C884.276 368.555 887.348 369.408 890.591 369.408C893.919 369.408 897.034 368.597 899.935 366.976C902.836 365.269 905.14 362.88 906.847 359.808C908.554 356.651 909.407 352.896 909.407 348.544Z" fill="white"/>
<path d="M286.34 405.16L280.86 427.4H279.06L284.52 405.16H286.34ZM294.612 417.7V419.14H293.152C292.472 419.14 291.905 419.213 291.452 419.36C291.012 419.493 290.678 419.693 290.452 419.96C290.238 420.227 290.132 420.567 290.132 420.98C290.132 421.42 290.258 421.773 290.512 422.04C290.765 422.293 291.105 422.48 291.532 422.6C291.958 422.707 292.438 422.76 292.972 422.76C293.718 422.76 294.372 422.673 294.932 422.5C295.505 422.327 296.012 422.133 296.452 421.92V423.46C296.185 423.607 295.878 423.74 295.532 423.86C295.185 423.967 294.792 424.047 294.352 424.1C293.912 424.167 293.418 424.2 292.872 424.2C291.858 424.2 291.018 424.067 290.352 423.8C289.685 423.52 289.185 423.147 288.852 422.68C288.532 422.2 288.372 421.667 288.372 421.08C288.372 420.547 288.478 420.113 288.692 419.78C288.918 419.433 289.212 419.16 289.572 418.96C289.932 418.747 290.325 418.58 290.752 418.46V418.36C290.152 418.173 289.665 417.887 289.292 417.5C288.932 417.1 288.752 416.573 288.752 415.92C288.752 415.32 288.925 414.807 289.272 414.38C289.632 413.953 290.118 413.633 290.732 413.42C291.358 413.193 292.072 413.08 292.872 413.08C293.392 413.08 293.858 413.113 294.272 413.18C294.685 413.233 295.072 413.32 295.432 413.44C295.792 413.547 296.145 413.68 296.492 413.84L295.832 415.24C295.392 415.04 294.938 414.873 294.472 414.74C294.018 414.607 293.478 414.54 292.852 414.54C292.052 414.54 291.445 414.667 291.032 414.92C290.632 415.173 290.432 415.553 290.432 416.06C290.432 416.647 290.705 417.067 291.252 417.32C291.812 417.573 292.558 417.7 293.492 417.7H294.612ZM299.3 424.12C298.953 424.12 298.66 424 298.42 423.76C298.18 423.52 298.06 423.227 298.06 422.88C298.06 422.533 298.18 422.24 298.42 422C298.66 421.76 298.953 421.64 299.3 421.64C299.633 421.64 299.913 421.76 300.14 422C300.38 422.24 300.5 422.533 300.5 422.88C300.5 423.227 300.38 423.52 300.14 423.76C299.913 424 299.633 424.12 299.3 424.12ZM309.039 424L304.739 419.16V424H302.919V409.2H304.739V417.9L308.959 413.04H311.499L306.339 418.5L311.519 424H309.039ZM315.432 413.08C316.379 413.08 317.205 413.267 317.912 413.64C318.619 414 319.172 414.573 319.572 415.36C319.972 416.147 320.172 417.173 320.172 418.44C320.172 419.76 319.945 420.847 319.492 421.7C319.052 422.553 318.452 423.187 317.692 423.6C316.945 424 316.099 424.2 315.152 424.2C314.579 424.2 314.072 424.147 313.632 424.04C313.205 423.947 312.812 423.807 312.452 423.62V422.06C312.825 422.233 313.232 422.38 313.672 422.5C314.112 422.62 314.612 422.68 315.172 422.68C315.892 422.68 316.485 422.52 316.952 422.2C317.419 421.88 317.765 421.413 317.992 420.8C318.232 420.173 318.352 419.413 318.352 418.52C318.352 417.187 318.099 416.2 317.592 415.56C317.099 414.92 316.319 414.6 315.252 414.6C314.879 414.6 314.465 414.647 314.012 414.74C313.572 414.833 313.192 414.96 312.872 415.12L312.332 413.66C312.652 413.5 313.092 413.367 313.652 413.26C314.225 413.14 314.819 413.08 315.432 413.08ZM323.681 408.8V414.08H322.081V408.8H323.681ZM331.364 412.84C332.698 412.84 333.778 413.247 334.604 414.06C335.431 414.86 335.844 416.02 335.844 417.54V424H334.044V417.8C334.044 416.707 333.771 415.873 333.224 415.3C332.678 414.713 331.931 414.42 330.984 414.42C330.024 414.42 329.258 414.72 328.684 415.32C328.124 415.92 327.844 416.793 327.844 417.94V424H326.024V413.04H327.844V414.6C328.204 414.04 328.691 413.607 329.304 413.3C329.931 412.993 330.618 412.84 331.364 412.84ZM341.037 413.08C341.984 413.08 342.811 413.267 343.517 413.64C344.224 414 344.777 414.573 345.177 415.36C345.577 416.147 345.777 417.173 345.777 418.44C345.777 419.76 345.551 420.847 345.097 421.7C344.657 422.553 344.057 423.187 343.297 423.6C342.551 424 341.704 424.2 340.757 424.2C340.184 424.2 339.677 424.147 339.237 424.04C338.811 423.947 338.417 423.807 338.057 423.62V422.06C338.431 422.233 338.837 422.38 339.277 422.5C339.717 422.62 340.217 422.68 340.777 422.68C341.497 422.68 342.091 422.52 342.557 422.2C343.024 421.88 343.371 421.413 343.597 420.8C343.837 420.173 343.957 419.413 343.957 418.52C343.957 417.187 343.704 416.2 343.197 415.56C342.704 414.92 341.924 414.6 340.857 414.6C340.484 414.6 340.071 414.647 339.617 414.74C339.177 414.833 338.797 414.96 338.477 415.12L337.937 413.66C338.257 413.5 338.697 413.367 339.257 413.26C339.831 413.14 340.424 413.08 341.037 413.08ZM349.007 424.12C348.66 424.12 348.367 424 348.127 423.76C347.887 423.52 347.767 423.227 347.767 422.88C347.767 422.533 347.887 422.24 348.127 422C348.367 421.76 348.66 421.64 349.007 421.64C349.34 421.64 349.62 421.76 349.847 422C350.087 422.24 350.207 422.533 350.207 422.88C350.207 423.227 350.087 423.52 349.847 423.76C349.62 424 349.34 424.12 349.007 424.12ZM365.806 412.84C366.659 412.84 367.419 413.02 368.086 413.38C368.753 413.727 369.279 414.253 369.666 414.96C370.053 415.667 370.246 416.527 370.246 417.54V424H368.446V417.8C368.446 416.707 368.173 415.873 367.626 415.3C367.093 414.713 366.366 414.42 365.446 414.42C364.499 414.42 363.746 414.727 363.186 415.34C362.626 415.94 362.346 416.813 362.346 417.96V424H360.546V417.8C360.546 416.707 360.273 415.873 359.726 415.3C359.193 414.713 358.466 414.42 357.546 414.42C356.599 414.42 355.846 414.727 355.286 415.34C354.726 415.94 354.446 416.813 354.446 417.96V424H352.626V413.04H354.446V414.62C354.806 414.047 355.286 413.607 355.886 413.3C356.499 412.993 357.173 412.84 357.906 412.84C358.826 412.84 359.639 413.047 360.346 413.46C361.053 413.873 361.579 414.48 361.926 415.28C362.233 414.507 362.739 413.907 363.446 413.48C364.153 413.053 364.939 412.84 365.806 412.84ZM374.211 411.26C373.865 411.26 373.571 411.14 373.331 410.9C373.105 410.66 372.991 410.367 372.991 410.02C372.991 409.673 373.105 409.38 373.331 409.14C373.571 408.9 373.865 408.78 374.211 408.78C374.558 408.78 374.845 408.9 375.071 409.14C375.311 409.38 375.431 409.673 375.431 410.02C375.431 410.367 375.311 410.66 375.071 410.9C374.845 411.14 374.558 411.26 374.211 411.26ZM375.111 426.38C375.111 427.353 374.865 428.067 374.371 428.52C373.878 428.973 373.158 429.2 372.211 429.2H371.151V427.66H371.911C372.418 427.66 372.771 427.56 372.971 427.36C373.185 427.16 373.291 426.82 373.291 426.34V413.04H375.111V426.38ZM377.512 418.48C377.512 417.36 377.739 416.38 378.192 415.54C378.646 414.687 379.266 414.027 380.052 413.56C380.852 413.093 381.739 412.86 382.712 412.86C383.672 412.86 384.506 413.067 385.212 413.48C385.919 413.893 386.446 414.413 386.792 415.04V413.04H388.632V424H386.792V421.96C386.432 422.6 385.892 423.133 385.172 423.56C384.466 423.973 383.639 424.18 382.692 424.18C381.719 424.18 380.839 423.94 380.052 423.46C379.266 422.98 378.646 422.307 378.192 421.44C377.739 420.573 377.512 419.587 377.512 418.48ZM386.792 418.5C386.792 417.673 386.626 416.953 386.292 416.34C385.959 415.727 385.506 415.26 384.932 414.94C384.372 414.607 383.752 414.44 383.072 414.44C382.392 414.44 381.772 414.6 381.212 414.92C380.652 415.24 380.206 415.707 379.872 416.32C379.539 416.933 379.372 417.653 379.372 418.48C379.372 419.32 379.539 420.053 379.872 420.68C380.206 421.293 380.652 421.767 381.212 422.1C381.772 422.42 382.392 422.58 383.072 422.58C383.752 422.58 384.372 422.42 384.932 422.1C385.506 421.767 385.959 421.293 386.292 420.68C386.626 420.053 386.792 419.327 386.792 418.5ZM398.508 405.16L393.028 427.4H391.228L396.688 405.16H398.508Z" fill="white"/>
<path d="M182 293.624C182 288.309 186.309 284 191.624 284V284C196.94 284 201.249 288.309 201.249 293.624V352.181C201.249 357.496 196.94 361.805 191.624 361.805V361.805C186.309 361.805 182 357.496 182 352.181V293.624Z" fill="white"/>
<rect x="209.312" y="295.097" width="20.5323" height="77.8051" rx="10.2661" fill="white"/>
<rect x="238.751" y="306.195" width="19.249" height="77.8051" rx="9.6245" fill="white"/>
<defs>
<filter id="filter0_f_117_75" x="717.414" y="193.992" width="237.023" height="427.008" filterUnits="userSpaceOnUse" color-interpolation-filters="sRGB">
<feFlood flood-opacity="0" result="BackgroundImageFix"/>
<feBlend mode="normal" in="SourceGraphic" in2="BackgroundImageFix" result="shape"/>
<feGaussianBlur stdDeviation="43" result="effect1_foregroundBlur_117_75"/>
</filter>
<filter id="filter1_f_117_75" x="576.531" y="103" width="237.023" height="427.008" filterUnits="userSpaceOnUse" color-interpolation-filters="sRGB">
<feFlood flood-opacity="0" result="BackgroundImageFix"/>
<feBlend mode="normal" in="SourceGraphic" in2="BackgroundImageFix" result="shape"/>
<feGaussianBlur stdDeviation="43" result="effect1_foregroundBlur_117_75"/>
</filter>
<filter id="filter2_f_117_75" x="435.648" y="178.343" width="237.023" height="427.008" filterUnits="userSpaceOnUse" color-interpolation-filters="sRGB">
<feFlood flood-opacity="0" result="BackgroundImageFix"/>
<feBlend mode="normal" in="SourceGraphic" in2="BackgroundImageFix" result="shape"/>
<feGaussianBlur stdDeviation="43" result="effect1_foregroundBlur_117_75"/>
</filter>
<filter id="filter3_f_117_75" x="294.766" y="103" width="237.023" height="427.008" filterUnits="userSpaceOnUse" color-interpolation-filters="sRGB">
<feFlood flood-opacity="0" result="BackgroundImageFix"/>
<feBlend mode="normal" in="SourceGraphic" in2="BackgroundImageFix" result="shape"/>
<feGaussianBlur stdDeviation="43" result="effect1_foregroundBlur_117_75"/>
</filter>
<filter id="filter4_f_117_75" x="153.883" y="178.343" width="237.023" height="427.008" filterUnits="userSpaceOnUse" color-interpolation-filters="sRGB">
<feFlood flood-opacity="0" result="BackgroundImageFix"/>
<feBlend mode="normal" in="SourceGraphic" in2="BackgroundImageFix" result="shape"/>
<feGaussianBlur stdDeviation="43" result="effect1_foregroundBlur_117_75"/>
</filter>
<filter id="filter5_f_117_75" x="13" y="103" width="237.023" height="427.008" filterUnits="userSpaceOnUse" color-interpolation-filters="sRGB">
<feFlood flood-opacity="0" result="BackgroundImageFix"/>
<feBlend mode="normal" in="SourceGraphic" in2="BackgroundImageFix" result="shape"/>
<feGaussianBlur stdDeviation="43" result="effect1_foregroundBlur_117_75"/>
</filter>
<filter id="filter6_f_117_75" x="68" y="158" width="976" height="375" filterUnits="userSpaceOnUse" color-interpolation-filters="sRGB">
<feFlood flood-opacity="0" result="BackgroundImageFix"/>
<feBlend mode="normal" in="SourceGraphic" in2="BackgroundImageFix" result="shape"/>
<feGaussianBlur stdDeviation="37" result="effect1_foregroundBlur_117_75"/>
</filter>
</defs>
</svg>
