<svg width="254" height="144" viewBox="0 0 254 144" fill="none" xmlns="http://www.w3.org/2000/svg">
<path d="M143.018 72.0012C143.018 111.765 111.002 144 71.5104 144C32.0186 144 0 111.758 0 72.0012C0 32.2446 32.0162 0 71.5104 0C111.005 0 143.018 32.2373 143.018 72.0012ZM221.465 72.0012C221.465 109.43 205.457 139.785 185.71 139.785C165.963 139.785 149.955 109.43 149.955 72.0012C149.955 34.572 165.96 4.21764 185.708 4.21764C205.455 4.21764 221.463 34.5623 221.463 72.0012H221.465ZM253.552 72.0012C253.552 105.529 247.923 132.725 240.977 132.725C234.031 132.725 228.404 105.536 228.404 72.0012C228.404 38.4666 234.033 11.2778 240.977 11.2778C247.92 11.2778 253.552 38.4641 253.552 72.0012Z" fill="#DDDDDD"/>
</svg>
